<svg width="29" height="48" viewBox="0 0 29 48" fill="none" xmlns="http://www.w3.org/2000/svg">
<path fill-rule="evenodd" clip-rule="evenodd" d="M1.04167 0.435059C1.34082 0.435059 1.58333 0.675935 1.58333 0.97307V28.9497C1.58333 29.2468 1.34082 29.4877 1.04167 29.4877C0.742512 29.4877 0.5 29.2468 0.5 28.9497V0.97307C0.5 0.675935 0.742512 0.435059 1.04167 0.435059Z" fill="#CCD0DC"/>
<path fill-rule="evenodd" clip-rule="evenodd" d="M1.04167 28.4117C1.34082 28.4117 1.58333 28.6525 1.58333 28.9497V40.5169C1.58333 43.1911 3.76595 45.359 6.45833 45.359H25.9583C26.2575 45.359 26.5 45.5999 26.5 45.897C26.5 46.1942 26.2575 46.4351 25.9583 46.4351H6.45833C3.16764 46.4351 0.5 43.7854 0.5 40.5169V28.9497C0.5 28.6525 0.742512 28.4117 1.04167 28.4117Z" fill="#CCD0DC"/>
<circle cx="27" cy="46" r="2" fill="#1D54F7"/>
</svg>
