<svg  viewBox="0 0 24 24" fill="none" xmlns="http://www.w3.org/2000/svg">
<path d="M8.9363 12.8434C8.9363 12.4496 9.25553 12.1303 9.64933 12.1303H11.3131V10.4666C11.3131 10.0728 11.6323 9.75356 12.0261 9.75356C12.4199 9.75356 12.7391 10.0728 12.7391 10.4666V12.1303H14.4029C14.7967 12.1303 15.1159 12.4496 15.1159 12.8434C15.1159 13.2372 14.7967 13.5564 14.4029 13.5564H12.7391V15.2202C12.7391 15.614 12.4199 15.9332 12.0261 15.9332C11.6323 15.9332 11.3131 15.614 11.3131 15.2202V13.5564H9.64933C9.25553 13.5564 8.9363 13.2372 8.9363 12.8434Z" fill="currentColor"/>
<path fill-rule="evenodd" clip-rule="evenodd" d="M20.7359 9.27515C21.1131 11.6389 21.0861 14.0495 20.6559 16.4041C20.4635 17.4572 19.5827 18.2465 18.515 18.3229L16.9578 18.4343C13.6742 18.6692 10.378 18.6692 7.0944 18.4343L5.65501 18.3313C4.51793 18.25 3.58005 17.4094 3.37515 16.288C2.96001 14.0159 2.88894 11.6942 3.16432 9.401L3.42337 7.24372C3.57711 5.96348 4.66321 5 5.95265 5H8.13127C9.19393 5 10.0793 5.7591 10.2747 6.76464L18.1793 6.76464C19.4213 6.76464 20.4792 7.66706 20.6749 8.89351L20.7359 9.27515ZM19.253 16.1478C19.6542 13.9521 19.6794 11.7041 19.3276 9.49993L19.2667 9.11828C19.1814 8.58391 18.7205 8.19071 18.1793 8.19071H9.8959C9.33968 8.19071 8.88876 7.73979 8.88876 7.18356C8.88876 6.76521 8.54962 6.42607 8.13127 6.42607H5.95265C5.38504 6.42607 4.90695 6.85019 4.83927 7.41375L4.58021 9.57102C4.32188 11.7223 4.38855 13.9002 4.77799 16.0317C4.86596 16.5131 5.26861 16.874 5.75678 16.9089L7.19616 17.0119C10.412 17.242 13.6402 17.242 16.8561 17.0119L18.4132 16.9005C18.8321 16.8705 19.1775 16.5609 19.253 16.1478Z" fill="currentColor"/>
</svg>
