<svg  viewBox="0 0 38 24" xmlns="http://www.w3.org/2000/svg" fill="none">
    <path fill="#268039" d="M12 1.5a10.5 10.5 0 1 1 0 21 10.5 10.5 0 0 1 0-21Zm-1.308 12.572L8.36 11.738a.902.902 0 0 0-1.274 1.273l2.97 2.97a.9.9 0 0 0 1.274 0l6.15-6.152a.9.9 0 1 0-1.273-1.273l-5.515 5.516Z"/>
    <path fill="#fff" d="M26.933 7.2a.533.533 0 1 1-1.066 0 .533.533 0 0 1 1.066 0ZM26.4 8.667c.22 0 .4.179.4.4v2.666a.4.4 0 0 1-.8 0V9.067c0-.221.18-.4.4-.4Z"/>
    <path fill="#fff" fill-rule="evenodd" d="M27.61 4.53a1.467 1.467 0 0 0-2.42 0l-.231.336a40.514 40.514 0 0 0-3.704 6.701l-.048.11a1.34 1.34 0 0 0 1.08 1.866c2.733.305 5.493.305 8.226 0a1.34 1.34 0 0 0 1.08-1.865l-.049-.111a40.506 40.506 0 0 0-3.703-6.7l-.23-.338Zm-1.76.45a.667.667 0 0 1 1.1 0l.23.338a39.701 39.701 0 0 1 3.63 6.568l.049.11a.54.54 0 0 1-.435.752 36.235 36.235 0 0 1-8.048 0 .54.54 0 0 1-.435-.751l.048-.11a39.7 39.7 0 0 1 3.63-6.57l.23-.336Z" clip-rule="evenodd"/>
    <path fill="#F5AE3B" d="M34.848 13.04 28.712 2.864a2.744 2.744 0 0 0-4.624 0L17.952 13.04a2.4 2.4 0 0 0-.04 2.4 2.695 2.695 0 0 0 2.352 1.36h12.272a2.696 2.696 0 0 0 2.352-1.328 2.4 2.4 0 0 0-.04-2.432Zm-8.448.56a.8.8 0 1 1 0-1.6.8.8 0 0 1 0 1.6Zm.8-3.2a.8.8 0 1 1-1.6 0V7.2a.8.8 0 0 1 1.6 0v3.2Z"/>
</svg>