<svg class="svg-icon" viewBox="0 0 24 24" xmlns="http://www.w3.org/2000/svg" data-testid="icon-ticket">
  <path d="M8.01038 11.0555C8.01038 11.606 8.45667 12.0523 9.00721 12.0523C9.55775 12.0523 10.0041 11.606 10.0041 11.0555C10.0041 10.5049 9.55774 10.0586 9.0072 10.0586C8.45666 10.0586 8.01038 10.5049 8.01038 11.0555Z" />
  <path d="M5.00721 12.0523C5.55775 12.0523 6.0041 11.606 6.0041 11.0555C6.0041 10.5049 5.55775 10.0586 5.00721 10.0586C4.45667 10.0586 4.01038 10.5049 4.01038 11.0555C4.01038 11.606 4.45668 12.0523 5.00721 12.0523Z" />
  <circle cx="11.9896" cy="11.0193" r="1" />
  <circle cx="14.9896" cy="11.0193" r="1" />
  <circle cx="18.9896" cy="11.0193" r="1" />
  <path d="M4.98975 7.75078C5.40381 7.75078 5.73975 7.41484 5.73975 7.00078V4.00078C5.73975 3.86308 5.85205 3.75078 5.98975 3.75078H8.67725C9.3086 4.96611 10.5791 5.75078 11.9897 5.75078C13.4004 5.75078 14.6709 4.96611 15.3022 3.75078H17.9897C18.1274 3.75078 18.2397 3.86308 18.2397 4.00078V7.00078C18.2397 7.41484 18.5757 7.75078 18.9897 7.75078C19.4038 7.75078 19.7397 7.41484 19.7397 7.00078V4.00078C19.7397 3.03594 18.9546 2.25078 17.9897 2.25078H14.8096C14.4888 2.25078 14.2036 2.45488 14.1001 2.7581C13.7949 3.65117 12.9468 4.25078 11.9897 4.25078C11.0327 4.25078 10.1846 3.65117 9.8794 2.7581C9.77588 2.45488 9.49072 2.25078 9.16992 2.25078H5.98975C5.02491 2.25078 4.23975 3.03594 4.23975 4.00078V7.00078C4.23975 7.41484 4.57568 7.75078 4.98975 7.75078Z" />
  <path d="M18.9897 14.2508C18.5757 14.2508 18.2397 14.5867 18.2397 15.0008V20.0008C18.2397 20.1385 18.1274 20.2508 17.9897 20.2508H15.3022C14.6709 19.0354 13.4004 18.2508 11.9897 18.2508C10.5791 18.2508 9.3086 19.0354 8.67725 20.2508H5.98975C5.85205 20.2508 5.73975 20.1385 5.73975 20.0008V15.0008C5.73975 14.5867 5.40381 14.2508 4.98975 14.2508C4.57569 14.2508 4.23975 14.5867 4.23975 15.0008V20.0008C4.23975 20.9656 5.02491 21.7508 5.98975 21.7508H9.16993C9.49073 21.7508 9.77589 21.5467 9.8794 21.2435C10.1846 20.3504 11.0327 19.7508 11.9897 19.7508C12.9468 19.7508 13.7949 20.3504 14.1001 21.2435C14.2036 21.5467 14.4888 21.7508 14.8096 21.7508H17.9897C18.9546 21.7508 19.7397 20.9656 19.7397 20.0008V15.0008C19.7397 14.5867 19.4038 14.2508 18.9897 14.2508Z" />
</svg>
