<svg viewBox="0 0 24 24" xmlns="http://www.w3.org/2000/svg" class="svg-icon" data-testid="icon-sailboat">
  <path d="M5.22751 18.75H6.77251L6.21001 16.5H17.79L17.2275 18.75H18.7725L19.4775 15.9315C19.5051 15.821 19.5071 15.7056 19.4834 15.5942C19.4598 15.4827 19.411 15.3781 19.3409 15.2884C19.2708 15.1986 19.1811 15.1259 19.0787 15.076C18.9763 15.026 18.8639 15 18.75 15H15V12.75H18.75C18.8759 12.75 18.9997 12.7183 19.1101 12.6579C19.2205 12.5975 19.3139 12.5102 19.3818 12.4042C19.4496 12.2982 19.4897 12.1769 19.4983 12.0513C19.5069 11.9257 19.4837 11.8 19.431 11.6857L14.931 1.93575C14.877 1.81838 14.7935 1.71697 14.6887 1.64134C14.5839 1.56572 14.4614 1.51845 14.333 1.50411C14.2046 1.48978 14.0746 1.50886 13.9558 1.55952C13.8369 1.61018 13.7331 1.69069 13.6545 1.79325L6.15601 11.5432C6.07079 11.6542 6.01832 11.7868 6.00453 11.9261C5.99075 12.0653 6.01619 12.2057 6.07799 12.3312C6.13978 12.4568 6.23547 12.5625 6.35423 12.6365C6.47298 12.7105 6.61008 12.7498 6.75001 12.75H13.5V15H5.25001C5.13608 15 5.02366 15.026 4.92128 15.076C4.8189 15.1259 4.72925 15.1986 4.65912 15.2884C4.589 15.3781 4.54025 15.4827 4.51658 15.5942C4.49291 15.7056 4.49494 15.821 4.52251 15.9315L5.22751 18.75ZM15 5.66475L17.5778 11.25H15V5.66475ZM8.27251 11.25L13.5 4.455V11.25H8.27251Z" />
  <path d="M20.1795 19.3132C20.0548 19.7964 19.773 20.2243 19.3785 20.5297C18.9839 20.835 18.4989 21.0005 18 21C17.4893 20.9701 16.999 20.789 16.5916 20.4797C16.1841 20.1704 15.8778 19.7468 15.7118 19.263C15.6613 19.114 15.5656 18.9845 15.438 18.8925C15.3104 18.8006 15.1573 18.7507 15 18.75C14.843 18.7489 14.6896 18.7975 14.562 18.889C14.4344 18.9805 14.3391 19.1102 14.2897 19.2592C14.124 19.7439 13.8177 20.1683 13.41 20.4783C13.0022 20.7883 12.5114 20.9699 12 21C11.4893 20.9701 10.999 20.789 10.5916 20.4797C10.1841 20.1704 9.87783 19.7468 9.71175 19.263C9.6613 19.114 9.5656 18.9845 9.438 18.8925C9.31041 18.8006 9.15728 18.7507 9 18.75C8.84245 18.7466 8.68806 18.7944 8.55999 18.8862C8.43193 18.9781 8.3371 19.1089 8.28975 19.2592C8.12401 19.7439 7.81774 20.1683 7.40996 20.4783C7.00218 20.7883 6.51135 20.9699 6 21C5.50106 21.0005 5.01611 20.835 4.62153 20.5297C4.22695 20.2243 3.94515 19.7964 3.8205 19.3132L2.3685 19.6867C2.57587 20.4921 3.04524 21.2057 3.7027 21.715C4.36015 22.2243 5.16834 22.5005 6 22.5C6.58204 22.5051 7.15707 22.3729 7.67836 22.1139C8.19964 21.855 8.65246 21.4767 9 21.0097C9.35113 21.4728 9.80469 21.8483 10.3252 22.1068C10.8456 22.3653 11.4189 22.4998 12 22.4998C12.5811 22.4998 13.1544 22.3653 13.6748 22.1068C14.1953 21.8483 14.6489 21.4728 15 21.0097C15.3475 21.4767 15.8004 21.855 16.3216 22.1139C16.8429 22.3729 17.418 22.5051 18 22.5C18.8317 22.5005 19.6398 22.2243 20.2973 21.715C20.9548 21.2057 21.4241 20.4921 21.6315 19.6867L20.1795 19.3132Z" />
</svg>
