<svg viewBox="0 0 24 24" xmlns="http://www.w3.org/2000/svg" class="svg-icon" data-testid="icon-van-shuttle">
  <path fill-rule="evenodd" clip-rule="evenodd" d="M16 4.28448H5C3.50244 4.28448 2.28369 5.50323 2.28369 7.00079V15.0008C2.28369 16.2648 3.15582 17.321 4.32715 17.6226C4.61053 18.8394 5.698 19.7508 7 19.7508C8.26721 19.7508 9.32599 18.8851 9.64343 17.7171H12.3566C12.674 18.8851 13.7328 19.7508 15 19.7508C16.2672 19.7508 17.326 18.8851 17.6434 17.7171H19C20.4976 17.7171 21.7163 16.4984 21.7163 15.0008V11.0008C21.7163 7.10919 19.312 4.28448 16 4.28448ZM20.2837 11.0008V12.3145C20.2686 12.3112 20.2538 12.3071 20.239 12.3031C20.2052 12.2938 20.1715 12.2845 20.1348 12.2845H18.2168L15.7163 10.6176V5.7171H16C18.5225 5.7171 20.2837 7.88995 20.2837 11.0008ZM9.71631 10.2845H14.2837V5.7171H9.71631V10.2845ZM5 5.7171H8.28369V10.2845H3.71631V7.00079C3.71631 6.29278 4.29199 5.7171 5 5.7171ZM5.75 17.0008C5.75 17.6902 6.31055 18.2508 7 18.2508C7.68945 18.2508 8.25 17.6902 8.25 17.0008C8.25 16.3113 7.68945 15.7508 7 15.7508C6.31055 15.7508 5.75 16.3113 5.75 17.0008ZM15 18.2508C14.3106 18.2508 13.75 17.6902 13.75 17.0008C13.75 16.3113 14.3106 15.7508 15 15.7508C15.6895 15.7508 16.25 16.3113 16.25 17.0008C16.25 17.6902 15.6895 18.2508 15 18.2508ZM17.6434 16.2845H19C19.708 16.2845 20.2837 15.7088 20.2837 15.0008V13.687C20.2686 13.6903 20.2537 13.6944 20.2389 13.6985C20.2052 13.7078 20.1715 13.7171 20.1348 13.7171H18C17.8584 13.7171 17.7202 13.6751 17.6025 13.5965L14.7832 11.7171H3.71631V15.0008C3.71631 15.4914 4.00226 15.9046 4.40753 16.1206C4.77673 15.0371 5.79297 14.2508 7 14.2508C8.26721 14.2508 9.32599 15.1165 9.64343 16.2845H12.3566C12.674 15.1165 13.7328 14.2508 15 14.2508C16.2672 14.2508 17.326 15.1165 17.6434 16.2845Z" />
</svg>
