<svg viewBox="0 0 14 14" xmlns="http://www.w3.org/2000/svg">
<path d="M7.66669 4.99999C7.66669 5.36818 7.36821 5.66666 7.00002 5.66666C6.63183 5.66666 6.33335 5.36818 6.33335 4.99999C6.33335 4.6318 6.63183 4.33333 7.00002 4.33333C7.36821 4.33333 7.66669 4.6318 7.66669 4.99999Z"/>
<path d="M7.00002 6.83333C7.27616 6.83333 7.50002 7.05718 7.50002 7.33333V10.6667C7.50002 10.9428 7.27616 11.1667 7.00002 11.1667C6.72388 11.1667 6.50002 10.9428 6.50002 10.6667V7.33333C6.50002 7.05718 6.72388 6.83333 7.00002 6.83333Z" />
<path fill-rule="evenodd" clip-rule="evenodd" d="M8.51358 1.66175C7.7856 0.596639 6.21441 0.596635 5.48643 1.66175L5.19848 2.08304C3.39445 4.72252 1.84448 7.52694 0.569325 10.4587L0.509182 10.597C0.0598118 11.6302 0.738721 12.8033 1.85842 12.9285C5.2755 13.3104 8.72451 13.3104 12.1416 12.9285C13.2613 12.8033 13.9402 11.6302 13.4908 10.597L13.4307 10.4587C12.1555 7.52693 10.6056 4.72252 8.80153 2.08305L8.51358 1.66175ZM6.31202 2.22602C6.64292 1.74188 7.35709 1.74188 7.688 2.22602L7.97594 2.64732C9.74434 5.23467 11.2637 7.98369 12.5137 10.8576L12.5738 10.9958C12.7548 11.4119 12.4814 11.8843 12.0305 11.9346C8.68725 12.3083 5.31276 12.3083 1.96949 11.9346C1.51863 11.8843 1.24525 11.4119 1.4262 10.9958L1.48634 10.8576C2.73631 7.98369 4.25567 5.23466 6.02407 2.64732L6.31202 2.22602Z" />
</svg>
