<svg viewBox="0 0 24 24" xmlns="http://www.w3.org/2000/svg" class="svg-icon" data-testid="icon-ship">
  <path d="M18.2754 9.12151C18.1766 8.8518 17.9976 8.61885 17.7623 8.45408C17.527 8.2893 17.2469 8.20063 16.9597 8.2H15.243L14.543 4H9.97365L10.6736 8.2H8.94299L8.24299 4H3.67365L4.37365 8.2H2.4V12.05H1V20.8H19.7131L22 13.5579V12.05H19.3403L18.2754 9.12151ZM13.357 5.4L13.8237 8.2H12.093L11.6263 5.4H13.357ZM7.05701 5.4L7.52369 8.2H5.79299L5.32635 5.4H7.05701ZM3.8 9.6H16.9597L17.8506 12.05H3.8V9.6ZM20.566 13.45L18.6869 19.4H2.4V13.45H20.566Z" />
  <path d="M3.75 15H5.25V16.5H3.75V15ZM6.75 15H8.25V16.5H6.75V15ZM9.75 15H11.25V16.5H9.75V15ZM12.75 15H14.25V16.5H12.75V15ZM15.75 15H17.25V16.5H15.75V15Z" />
</svg>
