<svg class="svg-icon" viewBox="0 0 24 24" xmlns="http://www.w3.org/2000/svg" data-testid="icon-arrow-left">
  <path d="M10.1236 6.96974C10.5742 6.51913 10.5742 5.78856 10.1236 5.33795C9.67298 4.88735 8.9424 4.88735 8.4918 5.33795L2.33795 11.4918C2.11265 11.7171 2 12.0124 2 12.3077C2 12.4641 2.03114 12.6133 2.08755 12.7494C2.14386 12.8855 2.22733 13.013 2.33795 13.1236L8.4918 19.2774C8.9424 19.728 9.67298 19.728 10.1236 19.2774C10.5742 18.8268 10.5742 18.0963 10.1236 17.6456L5.93948 13.4615H20.8462C21.4834 13.4615 22 12.9449 22 12.3077C22 11.6704 21.4834 11.1538 20.8462 11.1538H5.93948L10.1236 6.96974Z" />
</svg>
