<svg class="svg-icon" viewBox="0 0 24 24" xmlns="http://www.w3.org/2000/svg" data-testid="icon-trash">
  <path fill-rule="evenodd" clip-rule="evenodd" d="M21 6.25078H18.9946H16.75V5.00078C16.75 3.48418 15.5166 2.25078 14 2.25078H10C8.4834 2.25078 7.25 3.48418 7.25 5.00078V6.25078H4.99463H3C2.58594 6.25078 2.25 6.58672 2.25 7.00078C2.25 7.41484 2.58594 7.75078 3 7.75078H4.29639L5.04785 18.2679C5.18701 20.221 6.83008 21.7508 8.78809 21.7508H15.2017C17.1592 21.7508 18.8022 20.221 18.9419 18.2679L19.6929 7.75078H21C21.4141 7.75078 21.75 7.41484 21.75 7.00078C21.75 6.58672 21.4141 6.25078 21 6.25078ZM8.75 5.00078C8.75 4.31133 9.31055 3.75078 10 3.75078H14C14.6895 3.75078 15.25 4.31133 15.25 5.00078V6.25078H8.75V5.00078ZM15.2017 20.2508C16.376 20.2508 17.3618 19.3328 17.4458 18.1609L18.189 7.75078H16H8H5.80029L6.54395 18.1614C6.62745 19.3328 7.61329 20.2508 8.78809 20.2508H15.2017ZM10 10.2508C9.58594 10.2508 9.25 10.5867 9.25 11.0008V16.0008C9.25 16.4148 9.58594 16.7508 10 16.7508C10.4141 16.7508 10.75 16.4148 10.75 16.0008V11.0008C10.75 10.5867 10.4141 10.2508 10 10.2508ZM13.25 11.0008C13.25 10.5867 13.5859 10.2508 14 10.2508C14.4141 10.2508 14.75 10.5867 14.75 11.0008V16.0008C14.75 16.4148 14.4141 16.7508 14 16.7508C13.5859 16.7508 13.25 16.4148 13.25 16.0008V11.0008Z" />
</svg>
