<svg class="svg-icon" viewBox="0 0 24 24" xmlns="http://www.w3.org/2000/svg" data-testid="icon-sliders">
  <path d="M18.6329 11.2508H20C20.4141 11.2508 20.75 11.5867 20.75 12.0008C20.75 12.4148 20.4141 12.7508 20 12.7508H18.6329C18.3041 13.9014 17.2549 14.7508 16 14.7508C14.7451 14.7508 13.6959 13.9014 13.3671 12.7508H4C3.58594 12.7508 3.25 12.4148 3.25 12.0008C3.25 11.5867 3.58594 11.2508 4 11.2508H13.3671C13.6959 10.1001 14.7451 9.25078 16 9.25078C17.2549 9.25078 18.3041 10.1001 18.6329 11.2508ZM14.75 12.0008C14.75 12.6902 15.3105 13.2508 16 13.2508C16.6895 13.2508 17.25 12.6902 17.25 12.0008C17.25 11.3113 16.6895 10.7508 16 10.7508C15.3105 10.7508 14.75 11.3113 14.75 12.0008Z" />
  <path d="M7.36707 5.75078H4C3.58594 5.75078 3.25 5.41484 3.25 5.00078C3.25 4.58672 3.58594 4.25078 4 4.25078H7.36707C7.69592 3.10015 8.74512 2.25078 10 2.25078C11.2549 2.25078 12.3041 3.10015 12.6329 4.25078H20C20.4141 4.25078 20.75 4.58672 20.75 5.00078C20.75 5.41484 20.4141 5.75078 20 5.75078H12.6329C12.3041 6.90141 11.2549 7.75078 10 7.75078C8.74512 7.75078 7.69593 6.90141 7.36707 5.75078ZM11.25 5.00078C11.25 4.31133 10.6895 3.75078 10 3.75078C9.31055 3.75078 8.75 4.31133 8.75 5.00078C8.75 5.69023 9.31055 6.25078 10 6.25078C10.6895 6.25078 11.25 5.69023 11.25 5.00078Z" />
  <path d="M10.6329 18.2508H20C20.4141 18.2508 20.75 18.5867 20.75 19.0008C20.75 19.4148 20.4141 19.7508 20 19.7508H10.6329C10.3041 20.9014 9.25488 21.7508 8 21.7508C6.74512 21.7508 5.69593 20.9014 5.36707 19.7508H4C3.58594 19.7508 3.25 19.4148 3.25 19.0008C3.25 18.5867 3.58594 18.2508 4 18.2508H5.36707C5.69592 17.1001 6.74512 16.2508 8 16.2508C9.25488 16.2508 10.3041 17.1001 10.6329 18.2508ZM6.75 19.0008C6.75 19.6902 7.31055 20.2508 8 20.2508C8.68945 20.2508 9.25 19.6902 9.25 19.0008C9.25 18.3113 8.68945 17.7508 8 17.7508C7.31055 17.7508 6.75 18.3113 6.75 19.0008Z" />
</svg>
