<svg  viewBox="0 0 24 24" fill="none" xmlns="http://www.w3.org/2000/svg">
<path fill-rule="evenodd" clip-rule="evenodd" d="M19.8039 18.8957H7.81418C6.81496 18.8957 6.81496 18.8957 6.81496 19.3196V19.7434C6.81496 20.1673 6.81496 20.1673 7.81418 20.1673H19.8039C20.8032 20.1672 20.8032 20.1672 20.8032 19.7433V19.3194C20.8032 18.8957 20.8032 18.8957 19.8039 18.8957Z" />
<path fill-rule="evenodd" clip-rule="evenodd" d="M19.8041 14.6972H7.81431C6.81508 14.6972 6.81508 14.6972 6.81508 15.1211V15.545C6.81508 15.9689 6.81508 15.9689 7.81431 15.9689H19.8041C20.8033 15.9688 20.8033 15.9688 20.8033 15.5449V15.121C20.8033 14.6972 20.8033 14.6972 19.8041 14.6972Z"/>
<path fill-rule="evenodd" clip-rule="evenodd" d="M19.8041 8.24303H7.81431C6.81508 8.24303 6.81508 8.24303 6.81508 8.66691V9.09079C6.81508 9.51468 6.81508 9.51468 7.81431 9.51468H19.8041C20.8033 9.51458 20.8033 9.51458 20.8033 9.09069V8.66681C20.8033 8.24303 20.8033 8.24303 19.8041 8.24303Z"/>
<path fill-rule="evenodd" clip-rule="evenodd" d="M19.8039 3.63583H7.81418C6.81496 3.63583 6.81496 3.63583 6.81496 4.05971V4.4836C6.81496 4.90748 6.81496 4.90748 7.81418 4.90748H19.8039C20.8032 4.90738 20.8032 4.90738 20.8032 4.48349V4.05961C20.8032 3.63583 20.8032 3.63583 19.8039 3.63583Z"/>
<path d="M6.17913 19.4104C6.17913 20.2883 5.46746 21 4.58957 21C3.71167 21 3 20.2883 3 19.4104C3 18.5325 3.71167 17.8209 4.58957 17.8209C5.46746 17.8209 6.17913 18.5325 6.17913 19.4104Z" />
<path d="M6.17913 15.3684C6.17913 16.2463 5.46746 16.9579 4.58957 16.9579C3.71167 16.9579 3 16.2463 3 15.3684C3 14.4905 3.71167 13.7788 4.58957 13.7788C5.46746 13.7788 6.17913 14.4905 6.17913 15.3684Z" />
<path d="M6.17913 8.63162C6.17913 9.50951 5.46746 10.2212 4.58957 10.2212C3.71167 10.2212 3 9.50951 3 8.63162C3 7.75373 3.71167 7.04205 4.58957 7.04205C5.46746 7.04205 6.17913 7.75373 6.17913 8.63162Z" />
<path d="M6.17913 4.58957C6.17913 5.46746 5.46746 6.17913 4.58957 6.17913C3.71167 6.17913 3 5.46746 3 4.58957C3 3.71167 3.71167 3 4.58957 3C5.46746 3 6.17913 3.71167 6.17913 4.58957Z" />
</svg>
