<svg viewBox="0 0 24 24" xmlns="http://www.w3.org/2000/svg" class="svg-icon" data-testid="icon-calendar-check">
  <path d="M6.49884 12.6391C6.00793 12.6391 5.60999 13.037 5.60999 13.528C5.60999 14.0189 6.00794 14.4169 6.49884 14.4169C6.98981 14.4169 7.38776 14.0189 7.38776 13.528C7.38776 13.037 6.98981 12.6391 6.49884 12.6391Z" />
  <path d="M9.99775 12.6391C9.50684 12.6391 9.10883 13.037 9.10883 13.528C9.10883 14.0189 9.50684 14.4169 9.99775 14.4169C10.4887 14.4169 10.8866 14.0189 10.8866 13.528C10.8866 13.037 10.4887 12.6391 9.99775 12.6391Z" />
  <path d="M17.4839 15.0418L15.9507 16.6444L15.3066 16.1087C14.9878 15.8436 14.5156 15.888 14.2505 16.2059C13.9858 16.5242 14.0293 16.9969 14.3477 17.262L15.5293 18.2449C15.6689 18.3612 15.8389 18.4183 16.0088 18.4183C16.2065 18.4183 16.4038 18.3402 16.5508 18.1868L18.5679 16.0789C18.854 15.7796 18.8437 15.305 18.5444 15.0184C18.2446 14.7318 17.77 14.742 17.4839 15.0418Z" />
  <path fill-rule="evenodd" clip-rule="evenodd" d="M18.7739 6.66729V11.7666C20.5337 12.6154 21.7603 14.4016 21.7603 16.4827C21.7603 19.3777 19.4053 21.7327 16.5103 21.7327C14.4309 21.7327 12.6462 20.5081 11.7965 18.7508H6C3.93213 18.7508 2.25 17.0687 2.25 15.0008V6.66729C2.25 5.15118 3.48389 3.91729 5 3.91729H6.25293V3.00079C6.25293 2.58673 6.58887 2.25079 7.00293 2.25079C7.41699 2.25079 7.75293 2.58673 7.75293 3.00079V3.91729H13.2681V3.00079C13.2681 2.58673 13.604 2.25079 14.0181 2.25079C14.4321 2.25079 14.7681 2.58673 14.7681 3.00079V3.91729H16.0239C17.54 3.91729 18.7739 5.15118 18.7739 6.66729ZM16.0239 5.41729H5C4.31055 5.41729 3.75 5.97784 3.75 6.66729V8.36211H17.2739V6.66729C17.2739 5.97784 16.7134 5.41729 16.0239 5.41729ZM6 17.2508C4.75928 17.2508 3.75 16.2415 3.75 15.0008V9.86212H17.2739V11.3099L17.2222 11.3023C16.9881 11.2675 16.7539 11.2327 16.5103 11.2327C13.6152 11.2327 11.2603 13.5877 11.2603 16.4827C11.2603 16.7298 11.2957 16.9675 11.3311 17.205L11.338 17.2508H6ZM12.7603 16.4827C12.7603 18.5506 14.4424 20.2327 16.5103 20.2327C18.5781 20.2327 20.2603 18.5506 20.2603 16.4827C20.2603 14.4149 18.5781 12.7327 16.5103 12.7327C14.4424 12.7327 12.7603 14.4149 12.7603 16.4827Z" />
</svg>
