<svg  viewBox="0 0 16 16" xmlns="http://www.w3.org/2000/svg">
<path d="M6.81728 2V2.30059C6.19502 2.34277 5.7916 2.44824 5.60703 2.61699C5.42246 2.78047 5.33018 3.16016 5.33018 3.75605V8.93721C5.33018 9.78623 5.44619 10.448 5.67822 10.9227C6.11064 11.7875 6.93066 12.2199 8.13828 12.2199C9.46191 12.2199 10.3505 11.777 10.804 10.891C11.0571 10.3953 11.1837 9.63066 11.1837 8.59707V4.38096C11.1837 3.50029 11.0782 2.94922 10.8673 2.72773C10.6563 2.50098 10.2556 2.35859 9.66494 2.30059V2H13.4144V2.30059C12.7868 2.36914 12.3755 2.52207 12.1804 2.75937C11.9905 2.99141 11.8956 3.53193 11.8956 4.38096V8.59707C11.8956 9.71504 11.7242 10.5878 11.3814 11.2153C10.7486 12.3702 9.54629 12.9477 7.77441 12.9477C6.02363 12.9477 4.83184 12.3781 4.19902 11.2391C3.85625 10.6273 3.68486 9.82051 3.68486 8.81855V3.75605C3.68486 3.16543 3.59258 2.78838 3.40801 2.6249C3.22871 2.45615 2.8332 2.34805 2.22148 2.30059V2H6.81728Z" />
<path d="M2 14.3398H13.6991V15.1388H2V14.3398Z"/>
</svg>
