<svg class="svg-icon" viewBox="0 0 24 24" xmlns="http://www.w3.org/2000/svg" data-testid="icon-chevrons-right">
<path d="M11.4047 11.5223C11.5349 11.6542 11.6 11.8271 11.6 12C11.6 12.1729 11.5349 12.3458 11.4047 12.4777L7.13802 16.8021C6.87761 17.066 6.45573 17.066 6.19531 16.8021C5.9349 16.5381 5.9349 16.1105 6.19531 15.8466L9.99063 12L6.19531 8.1534C5.9349 7.88947 5.9349 7.46189 6.19531 7.19795C6.45573 6.93402 6.87761 6.93402 7.13802 7.19795L11.4047 11.5223Z" />
<path d="M17.8047 11.5223C17.9349 11.6542 18 11.8271 18 12C18 12.1729 17.9349 12.3458 17.8047 12.4777L13.538 16.8021C13.2776 17.066 12.8557 17.066 12.5953 16.8021C12.3349 16.5381 12.3349 16.1105 12.5953 15.8466L16.3906 12L12.5953 8.1534C12.3349 7.88947 12.3349 7.46189 12.5953 7.19795C12.8557 6.93402 13.2776 6.93402 13.538 7.19795L17.8047 11.5223Z" />
</svg>
