<svg viewBox="0 0 24 24" xmlns="http://www.w3.org/2000/svg" class="svg-icon" data-testid="icon-ticket-event">
  <path fill-rule="evenodd" clip-rule="evenodd" d="M1.5 6.375C1.5 5.33979 2.33979 4.5 3.375 4.5H20.625C21.6602 4.5 22.5 5.33979 22.5 6.375V9.401C22.5 9.66927 22.3567 9.91711 22.1242 10.051C21.7817 10.2482 21.4972 10.5322 21.2994 10.8743C21.1016 11.2165 20.9974 11.6048 20.9974 12C20.9974 12.3952 21.1016 12.7835 21.2994 13.1257C21.4972 13.4678 21.7817 13.7518 22.1242 13.949C22.3567 14.0829 22.5 14.3307 22.5 14.599V17.625C22.5 18.6602 21.6602 19.5 20.625 19.5H3.375C2.33979 19.5 1.5 18.6602 1.5 17.625V14.599C1.5 14.3307 1.64329 14.0829 1.87578 13.949C2.2183 13.7518 2.5028 13.4678 2.70062 13.1257C2.89845 12.7835 3.0026 12.3952 3.0026 12C3.0026 11.6048 2.89845 11.2165 2.70062 10.8743C2.5028 10.5322 2.2183 10.2482 1.87578 10.051C1.64329 9.91711 1.5 9.66927 1.5 9.401V6.375ZM3.375 6C3.16821 6 3 6.16821 3 6.375V8.99855C3.40444 9.30124 3.74482 9.68355 3.99921 10.1236C4.32898 10.6939 4.5026 11.3412 4.5026 12C4.5026 12.6588 4.32898 13.3061 3.99921 13.8764C3.74482 14.3165 3.40444 14.6988 3 15.0015V17.625C3 17.8318 3.16821 18 3.375 18H15.75V17.25C15.75 16.8358 16.0858 16.5 16.5 16.5C16.9142 16.5 17.25 16.8358 17.25 17.25V18H20.625C20.8318 18 21 17.8318 21 17.625V15.0015C20.5956 14.6988 20.2552 14.3165 20.0008 13.8764C19.671 13.3061 19.4974 12.6588 19.4974 12C19.4974 11.3412 19.671 10.6939 20.0008 10.1236C20.2552 9.68355 20.5956 9.30124 21 8.99855V6.375C21 6.16821 20.8318 6 20.625 6H17.25V6.75C17.25 7.16421 16.9142 7.5 16.5 7.5C16.0858 7.5 15.75 7.16421 15.75 6.75V6H3.375ZM16.5 9C16.9142 9 17.25 9.33579 17.25 9.75V10.5C17.25 10.9142 16.9142 11.25 16.5 11.25C16.0858 11.25 15.75 10.9142 15.75 10.5V9.75C15.75 9.33579 16.0858 9 16.5 9ZM6.75 12.75C6.75 12.3358 7.08579 12 7.5 12H12.75C13.1642 12 13.5 12.3358 13.5 12.75C13.5 13.1642 13.1642 13.5 12.75 13.5H7.5C7.08579 13.5 6.75 13.1642 6.75 12.75ZM16.5 12.75C16.9142 12.75 17.25 13.0858 17.25 13.5V14.25C17.25 14.6642 16.9142 15 16.5 15C16.0858 15 15.75 14.6642 15.75 14.25V13.5C15.75 13.0858 16.0858 12.75 16.5 12.75ZM6.75 15C6.75 14.5858 7.08579 14.25 7.5 14.25H10.5C10.9142 14.25 11.25 14.5858 11.25 15C11.25 15.4142 10.9142 15.75 10.5 15.75H7.5C7.08579 15.75 6.75 15.4142 6.75 15Z"/>
</svg>
