<svg class="svg-icon" viewBox="0 0 24 24" xmlns="http://www.w3.org/2000/svg" data-testid="icon-calendar">
  <path fill-rule="evenodd" clip-rule="evenodd" d="M18 5.25078H16.75V3.00078C16.75 2.58672 16.4141 2.25078 16 2.25078C15.5859 2.25078 15.25 2.58672 15.25 3.00078V5.25078H8.75V3.00078C8.75 2.58672 8.41406 2.25078 8 2.25078C7.58594 2.25078 7.25 2.58672 7.25 3.00078V5.25078H6C4.4834 5.25078 3.25 6.48418 3.25 8.00078V18.0008C3.25 20.0686 4.93213 21.7508 7 21.7508H17C19.0679 21.7508 20.75 20.0686 20.75 18.0008V8.00078C20.75 6.48418 19.5166 5.25078 18 5.25078ZM19.25 18.0008C19.25 19.2415 18.2407 20.2508 17 20.2508H7C5.75928 20.2508 4.75 19.2415 4.75 18.0008V11.7508H19.25V18.0008ZM4.75 10.2508H19.25V8.00078C19.25 7.31133 18.6895 6.75078 18 6.75078H6C5.31055 6.75078 4.75 7.31133 4.75 8.00078V10.2508Z"/>
  <circle cx="8" cy="16.0008" r="1"/>
  <circle cx="12" cy="16.0008" r="1"/>
  <circle cx="16" cy="16.0008" r="1"/>
</svg>
