<svg class="svg-icon" viewBox="0 0 24 24" xmlns="http://www.w3.org/2000/svg" data-testid="icon-arrow-right">
  <path d="M13.8764 6.96974C13.4258 6.51913 13.4258 5.78856 13.8764 5.33795C14.327 4.88735 15.0576 4.88735 15.5082 5.33795L21.662 11.4918C21.8873 11.7171 22 12.0124 22 12.3077C22 12.4641 21.9689 12.6133 21.9124 12.7494C21.8561 12.8855 21.7727 13.013 21.662 13.1236L15.5082 19.2774C15.0576 19.728 14.327 19.728 13.8764 19.2774C13.4258 18.8268 13.4258 18.0963 13.8764 17.6456L18.0605 13.4615H3.15385C2.51659 13.4615 2 12.9449 2 12.3077C2 11.6704 2.51659 11.1538 3.15385 11.1538H18.0605L13.8764 6.96974Z" />
</svg>
