<svg  viewBox="0 0 16 16"  xmlns="http://www.w3.org/2000/svg">
<path d="M2.29004 13.543C2.77637 13.5254 3.125 13.4609 3.33594 13.3496C3.69336 13.1621 3.87207 12.8047 3.87207 12.2773V3.56738C3.87207 3.04004 3.70508 2.68555 3.37109 2.50391C3.17188 2.39258 2.81152 2.32227 2.29004 2.29297V1.83594H7.85352C8.92578 1.83594 9.81641 1.95898 10.5254 2.20508C11.8613 2.66797 12.5293 3.51172 12.5293 4.73633C12.5293 5.48047 12.2568 6.07227 11.7119 6.51172C11.1729 6.94531 10.5869 7.2207 9.9541 7.33789V7.50488C10.6221 7.63379 11.2021 7.85059 11.6943 8.15527C12.6553 8.75293 13.1357 9.58496 13.1357 10.6514C13.1357 11.6475 12.6758 12.4561 11.7559 13.0771C10.8359 13.6924 9.61133 14 8.08203 14H2.29004V13.543ZM6.74609 7.29395C7.85938 7.29395 8.60645 7.1123 8.9873 6.74902C9.36816 6.38574 9.55859 5.74121 9.55859 4.81543C9.55859 4.12988 9.43262 3.55273 9.18066 3.08398C8.93457 2.61523 8.45703 2.38086 7.74805 2.38086C7.37305 2.38086 7.1123 2.44531 6.96582 2.57422C6.81934 2.69727 6.74609 2.92285 6.74609 3.25098V7.29395ZM6.74609 12.3389C6.75195 12.6553 6.79883 12.8867 6.88672 13.0332C7.0332 13.291 7.31445 13.4199 7.73047 13.4199C8.58008 13.4199 9.1748 13.1885 9.51465 12.7256C9.86035 12.2627 10.0332 11.6035 10.0332 10.748C10.0332 9.4707 9.65527 8.62109 8.89941 8.19922C8.44238 7.94141 7.72461 7.82129 6.74609 7.83887V12.3389Z"/>
</svg>
