<svg viewBox="0 0 24 24" fill="none" xmlns="http://www.w3.org/2000/svg"  data-testid="icon-languages">
<path fill-rule="evenodd" clip-rule="evenodd" d="M9 2.25C9.41421 2.25 9.75 2.58579 9.75 3V4.5H13.169C13.1799 4.49976 13.1909 4.49976 13.2019 4.5H15.75C16.1642 4.5 16.5 4.83579 16.5 5.25C16.5 5.66421 16.1642 6 15.75 6H13.7488C13.7278 6.06787 13.7048 6.14122 13.6796 6.21967C13.5253 6.70032 13.2913 7.37426 12.9701 8.1546C12.3834 9.58019 11.495 11.3877 10.2528 13.0223C10.7085 13.5331 11.13 13.959 11.4804 14.2931C11.7826 14.5812 12.0313 14.8002 12.2024 14.9457C12.2879 15.0184 12.354 15.0727 12.3976 15.108C12.4194 15.1256 12.4356 15.1385 12.4458 15.1465C12.4486 15.1487 12.4509 15.1505 12.4528 15.152C12.4544 15.1533 12.4557 15.1543 12.4566 15.155L12.4581 15.1562C12.4582 15.1562 12.4582 15.1563 12.4583 15.1563C12.4583 15.1563 12.4584 15.1564 12.4584 15.1564C12.4585 15.1564 12.4585 15.1564 12.4585 15.1565C12.7861 15.4095 12.8467 15.8803 12.5938 16.2081C12.3408 16.5361 11.8699 16.5968 11.5419 16.3438L12 15.75C11.5419 16.3438 11.5418 16.3438 11.5417 16.3437L11.5414 16.3435L11.5408 16.343L11.5391 16.3417L11.5339 16.3376C11.5308 16.3352 11.5269 16.3321 11.5221 16.3284C11.5203 16.327 11.5185 16.3255 11.5165 16.3239C11.5018 16.3124 11.4811 16.2959 11.4546 16.2745C11.4018 16.2318 11.3261 16.1696 11.2307 16.0885C11.04 15.9263 10.7701 15.6883 10.4454 15.3788C10.1096 15.0587 9.71427 14.6612 9.28695 14.1912C8.09165 15.5456 6.91211 16.5918 5.98606 17.3275C5.44222 17.7595 4.98427 18.0857 4.65967 18.3054C4.49732 18.4153 4.36818 18.4987 4.27817 18.5554C4.23316 18.5838 4.19792 18.6055 4.17318 18.6206C4.16081 18.6282 4.15106 18.634 4.14403 18.6383C4.14201 18.6395 4.14021 18.6405 4.13863 18.6415L4.13554 18.6433L4.13189 18.6455L4.13151 18.6457C4.13134 18.6458 4.13119 18.6459 3.75 18L4.13119 18.6459C3.77447 18.8564 3.31462 18.7379 3.10409 18.3812C2.89366 18.0246 3.01198 17.565 3.36834 17.3544C3.36839 17.3543 3.36845 17.3543 3.36851 17.3543C3.36852 17.3543 3.36854 17.3543 3.36855 17.3542C3.36864 17.3542 3.36872 17.3541 3.36881 17.3541L3.37254 17.3519C3.3765 17.3495 3.38314 17.3455 3.39237 17.3399C3.41085 17.3286 3.43969 17.3108 3.47818 17.2866C3.55516 17.238 3.67065 17.1635 3.81885 17.0632C4.11534 16.8625 4.54216 16.5588 5.053 16.153C5.96098 15.4317 7.12956 14.3915 8.30272 13.0381C8.21253 12.9255 8.12189 12.8102 8.03099 12.6923C7.14512 11.543 6.47406 10.5246 6.02319 9.79122C5.79765 9.42434 5.62691 9.12829 5.51167 8.92224C5.45405 8.8192 5.41027 8.73862 5.38044 8.68289C5.36553 8.65503 5.35409 8.63337 5.34615 8.61823C5.34218 8.61065 5.33909 8.6047 5.33686 8.60042L5.33419 8.59525L5.33334 8.59361L5.33292 8.5928C5.33287 8.5927 5.33282 8.5926 6 8.25L5.33282 8.5926C5.14361 8.22413 5.28893 7.77204 5.6574 7.58282C6.02577 7.39366 6.47772 7.53885 6.66702 7.9071C6.66702 7.9071 6.66702 7.9071 6.66702 7.9071C6.66704 7.90713 6.66705 7.90716 6.66707 7.90719C6.6671 7.90726 6.66714 7.90733 6.66718 7.9074L6.66835 7.90967C6.66908 7.91107 6.6701 7.91304 6.67142 7.91556C6.67236 7.91737 6.67346 7.91946 6.6747 7.92183C6.68065 7.93319 6.69005 7.95099 6.70287 7.97495C6.72852 8.02286 6.76788 8.09536 6.82085 8.19007C6.9268 8.37952 7.08712 8.65769 7.30103 9.00566C7.72907 9.70193 8.3705 10.6757 9.21901 11.7765C9.23442 11.7965 9.24982 11.8164 9.26521 11.8362C10.2944 10.4161 11.0579 8.85955 11.583 7.58369C11.8361 6.96876 12.0316 6.42452 12.1732 6H2.25C1.83579 6 1.5 5.66421 1.5 5.25C1.5 4.83579 1.83579 4.5 2.25 4.5H8.25V3C8.25 2.58579 8.58579 2.25 9 2.25ZM17.25 9.75C17.55 9.75 17.8212 9.9288 17.9394 10.2046L22.4394 20.7046C22.6025 21.0853 22.4262 21.5262 22.0454 21.6894C21.6647 21.8525 21.2238 21.6762 21.0606 21.2954L19.9697 18.75H14.5303L13.4394 21.2954C13.2762 21.6762 12.8353 21.8525 12.4546 21.6894C12.0738 21.5262 11.8975 21.0853 12.0606 20.7046L16.5606 10.2046C16.6788 9.9288 16.95 9.75 17.25 9.75ZM15.1731 17.25H19.3269L17.25 12.4039L15.1731 17.25Z"/>
</svg>
