<svg viewBox="0 0 16 16" fill="none" xmlns="http://www.w3.org/2000/svg">
<path fill-rule="evenodd" clip-rule="evenodd" d="M3.83342 0.708252C4.1786 0.708252 4.45842 0.988074 4.45842 1.33325V2.72294C6.81487 2.51309 9.18531 2.51309 11.5418 2.72295V1.33325C11.5418 0.988074 11.8216 0.708252 12.1668 0.708252C12.5119 0.708252 12.7918 0.988074 12.7918 1.33325V2.84695C14.036 3.02287 15.0189 4.00698 15.1853 5.26228L15.2574 5.80641C15.5608 8.09502 15.5346 10.4153 15.1796 12.6965C15.0038 13.8265 14.0857 14.6945 12.9476 14.8067L11.9534 14.9047C9.32423 15.164 6.6759 15.164 4.0467 14.9047L3.05253 14.8067C1.91441 14.6945 0.996359 13.8265 0.820518 12.6965C0.465553 10.4153 0.439352 8.09502 0.742715 5.80641L0.814841 5.26228C0.981239 4.00696 1.9642 3.02285 3.20842 2.84694V1.33325C3.20842 0.988074 3.48825 0.708252 3.83342 0.708252ZM4.2044 4.00226C6.72872 3.75332 9.27141 3.75332 11.7957 4.00226L12.5503 4.07667C13.2726 4.1479 13.8508 4.70704 13.9461 5.42654L14.0183 5.97066C14.0435 6.16076 14.0663 6.35108 14.0867 6.54159H1.91348C1.93388 6.35108 1.95668 6.16076 1.98188 5.97067L2.054 5.42654C2.14937 4.70704 2.72756 4.1479 3.44985 4.07667L4.2044 4.00226ZM1.81412 7.79159C1.7323 9.36498 1.81291 10.9443 2.05565 12.5043C2.14385 13.0711 2.60434 13.5064 3.1752 13.5627L4.16937 13.6608C6.71699 13.912 9.28314 13.912 11.8308 13.6608L12.8249 13.5627C13.3958 13.5064 13.8563 13.0711 13.9445 12.5043C14.1872 10.9443 14.2678 9.36498 14.186 7.79159H1.81412Z" fill="currentColor"/>
</svg>
