<svg viewBox="0 0 24 24" xmlns="http://www.w3.org/2000/svg"  class="svg-icon" data-testid="icon-castle">
  <path fill-rule="evenodd" clip-rule="evenodd" d="M5.46516 2.17876C5.70351 1.94041 6.08994 1.94041 6.32829 2.17876L9.61467 5.46514C9.78922 5.63969 9.84144 5.9022 9.74697 6.13027C9.65251 6.35833 9.42996 6.50703 9.1831 6.50703H8.38498V8.7136C8.38498 9.0022 8.18467 9.24402 7.9155 9.3076V12.3286H9.51174V10.5915C9.51174 10.4297 9.57604 10.2744 9.6905 10.16L11.5684 8.28204C11.8068 8.04369 12.1932 8.04369 12.4316 8.28204L14.3095 10.16C14.424 10.2744 14.4883 10.4297 14.4883 10.5915V12.3286H16.0845V9.3076C15.8153 9.24402 15.615 9.0022 15.615 8.7136V6.50703H14.8169C14.57 6.50703 14.3475 6.35833 14.253 6.13027C14.1586 5.9022 14.2108 5.63969 14.3853 5.46514L17.6717 2.17876C17.9101 1.94041 18.2965 1.94041 18.5348 2.17876L21.8212 5.46514C21.9958 5.63969 22.048 5.9022 21.9535 6.13027C21.8591 6.35833 21.6365 6.50703 21.3897 6.50703H20.5915V8.7136C20.5915 9.0022 20.3912 9.24402 20.1221 9.3076V12.3286H21.3897C21.7267 12.3286 22 12.6019 22 12.9389V21.3896C22 21.7267 21.7267 22 21.3897 22H14.8169C14.4798 22 14.2066 21.7267 14.2066 21.3896V19.5117C14.2066 18.9265 13.9741 18.3652 13.5603 17.9514C13.1465 17.5376 12.5852 17.3051 12 17.3051C11.4148 17.3051 10.8535 17.5376 10.4397 17.9514C10.0259 18.3652 9.79343 18.9265 9.79343 19.5117V21.3896C9.79343 21.7267 9.52018 22 9.1831 22H2.61035C2.27327 22 2.00002 21.7267 2.00002 21.3896V12.9389C2.00002 12.6019 2.27327 12.3286 2.61035 12.3286H3.87795V9.3076C3.60878 9.24402 3.40847 9.0022 3.40847 8.7136V6.50703H2.61035C2.36349 6.50703 2.14094 6.35833 2.04648 6.13027C1.95201 5.9022 2.00423 5.63969 2.17878 5.46514L5.46516 2.17876ZM4.08381 5.28638H7.70964L5.89672 3.47346L4.08381 5.28638ZM4.62912 6.50703V8.10328H7.16433V6.50703H4.62912ZM6.69485 9.32393H5.0986V12.9389C5.0986 13.276 4.82535 13.5493 4.48828 13.5493H3.22067V20.7793H8.57278V19.5117C8.57278 18.6027 8.93386 17.731 9.57659 17.0883C10.2193 16.4456 11.091 16.0845 12 16.0845C12.909 16.0845 13.7807 16.4456 14.4234 17.0883C15.0661 17.731 15.4272 18.6027 15.4272 19.5117V20.7793H20.7793V13.5493H19.5117C19.1746 13.5493 18.9014 13.276 18.9014 12.9389V9.32393H17.3052V12.9389C17.3052 13.276 17.0319 13.5493 16.6948 13.5493H13.8779C13.5409 13.5493 13.2676 13.276 13.2676 12.9389V10.8443L12 9.57674L10.7324 10.8443V12.9389C10.7324 13.276 10.4591 13.5493 10.1221 13.5493H7.30517C6.9681 13.5493 6.69485 13.276 6.69485 12.9389V9.32393ZM16.8357 8.10328H19.3709V6.50703H16.8357V8.10328ZM19.9162 5.28638H16.2904L18.1033 3.47346L19.9162 5.28638Z" />
</svg>
