<svg viewBox="0 0 24 24" xmlns="http://www.w3.org/2000/svg" class="svg-icon" data-testid="icon-lock">
  <path fill-rule="evenodd" clip-rule="evenodd" d="M16.0356 9.30278V6.25762C16.0356 4.03252 14.2251 2.22198 12 2.22198C9.77491 2.22198 7.96436 4.03252 7.96436 6.25762V9.30504C7.30292 9.41808 6.6922 9.72461 6.20801 10.2088C5.59033 10.8265 5.25049 11.6478 5.25098 12.5213L5.25293 18.0301C5.25293 20.4295 6.58203 21.7508 8.99561 21.7508H15.2065C17.1646 21.7508 18.8076 20.221 18.9492 18.1966L18.8106 12.4788C18.7711 10.8513 17.5891 9.55058 16.0356 9.30278ZM12 3.72197C13.3979 3.72197 14.5356 4.85967 14.5356 6.25762V9.25078H9.46436V6.25762C9.46436 4.85967 10.602 3.72197 12 3.72197ZM8.99561 20.2508H15.2065C16.3813 20.2508 17.3672 19.3328 17.4512 18.1609L17.3105 12.5149C17.2866 11.5257 16.4927 10.7508 15.5029 10.7508H8.52002C8.04736 10.7508 7.60303 10.9349 7.26905 11.2693C6.93457 11.6033 6.75098 12.0477 6.75098 12.5203L6.75293 18.0296C6.75293 19.5867 7.42383 20.2508 8.99561 20.2508Z" />
  <path d="M12 13.2508C11.3096 13.2508 10.75 13.8104 10.75 14.5008C10.75 14.9042 10.9534 15.2465 11.25 15.475V17.0008C11.25 17.4149 11.5859 17.7508 12 17.7508C12.4141 17.7508 12.75 17.4149 12.75 17.0008V15.475C13.0466 15.2465 13.25 14.9042 13.25 14.5008C13.25 13.8104 12.6904 13.2508 12 13.2508Z" />
</svg>
