<svg  viewBox="0 0 24 24" fill="none" xmlns="http://www.w3.org/2000/svg">
<path fill-rule="evenodd" clip-rule="evenodd" d="M7.71045 7.50555C7.71045 5.0172 9.72766 3 12.216 3C14.7044 3 16.7216 5.0172 16.7216 7.50555C16.7216 9.9939 14.7044 12.0111 12.216 12.0111C9.72766 12.0111 7.71045 9.9939 7.71045 7.50555ZM12.216 4.59019C10.6059 4.59019 9.30065 5.89544 9.30065 7.50555C9.30065 9.11566 10.6059 10.4209 12.216 10.4209C13.8261 10.4209 15.1314 9.11566 15.1314 7.50555C15.1314 5.89544 13.8261 4.59019 12.216 4.59019Z" />
<path fill-rule="evenodd" clip-rule="evenodd" d="M7.97549 15.1915C6.65813 15.1915 5.59019 16.2594 5.59019 17.5768V18.8365C5.59019 18.8557 5.6041 18.8721 5.62303 18.8751C9.98944 19.588 14.4426 19.588 18.809 18.8751C18.8279 18.8721 18.8418 18.8557 18.8418 18.8365V17.5768C18.8418 16.2594 17.7739 15.1915 16.4565 15.1915H16.0952C16.0672 15.1915 16.0395 15.1959 16.0129 15.2046L15.0953 15.5042C13.2244 16.1151 11.2076 16.1151 9.33668 15.5042L8.41912 15.2046C8.39256 15.1959 8.36479 15.1915 8.33685 15.1915H7.97549ZM4 17.5768C4 15.3812 5.77989 13.6013 7.97549 13.6013H8.33685C8.53244 13.6013 8.72679 13.6322 8.91272 13.6929L9.83027 13.9925C11.3805 14.4987 13.0515 14.4987 14.6017 13.9925L15.5193 13.6929C15.7052 13.6322 15.8996 13.6013 16.0952 13.6013H16.4565C18.6521 13.6013 20.432 15.3812 20.432 17.5768V18.8365C20.432 19.635 19.8533 20.3159 19.0652 20.4446C14.5291 21.1851 9.90291 21.1851 5.3668 20.4446C4.57871 20.3159 4 19.635 4 18.8365V17.5768Z" />
</svg>
