<svg viewBox="0 0 16 12" xmlns="http://www.w3.org/2000/svg">
    <path fill-rule="evenodd" clip-rule="evenodd"
        d="M5.1875 6C5.1875 4.4467 6.4467 3.1875 8 3.1875C9.5533 3.1875 10.8125 4.4467 10.8125 6C10.8125 7.5533 9.5533 8.8125 8 8.8125C6.4467 8.8125 5.1875 7.5533 5.1875 6ZM8 4.3125C7.06802 4.3125 6.3125 5.06802 6.3125 6C6.3125 6.93198 7.06802 7.6875 8 7.6875C8.93198 7.6875 9.6875 6.93198 9.6875 6C9.6875 5.06802 8.93198 4.3125 8 4.3125Z"
    />
    <path fill-rule="evenodd" clip-rule="evenodd"
        d="M2.24257 4.98477C1.92823 5.43771 1.8125 5.79202 1.8125 6C1.8125 6.20798 1.92823 6.56228 2.24257 7.01523C2.54643 7.45308 2.99808 7.92771 3.5695 8.36627C4.71484 9.24531 6.28509 9.9375 8 9.9375C9.71491 9.9375 11.2852 9.24531 12.4305 8.36627C13.0019 7.92771 13.4536 7.45308 13.7574 7.01523C14.0718 6.56228 14.1875 6.20798 14.1875 6C14.1875 5.79202 14.0718 5.43771 13.7574 4.98477C13.4536 4.54692 13.0019 4.07229 12.4305 3.63373C11.2852 2.75469 9.71491 2.0625 8 2.0625C6.28509 2.0625 4.71484 2.75469 3.5695 3.63373C2.99808 4.07229 2.54643 4.54692 2.24257 4.98477ZM2.88455 2.74127C4.18224 1.74531 5.98699 0.9375 8 0.9375C10.013 0.9375 11.8178 1.74531 13.1154 2.74127C13.7655 3.24021 14.3024 3.79683 14.6817 4.34336C15.0505 4.87479 15.3125 5.45798 15.3125 6C15.3125 6.54202 15.0505 7.12521 14.6817 7.65664C14.3024 8.20317 13.7655 8.75979 13.1154 9.25873C11.8178 10.2547 10.013 11.0625 8 11.0625C5.98699 11.0625 4.18224 10.2547 2.88455 9.25873C2.23447 8.75979 1.69761 8.20317 1.31833 7.65664C0.949528 7.12521 0.6875 6.54202 0.6875 6C0.6875 5.45798 0.949528 4.87479 1.31833 4.34336C1.69761 3.79683 2.23447 3.24021 2.88455 2.74127Z"
    />
</svg>