<svg viewBox="0 0 24 24" fill="none" xmlns="http://www.w3.org/2000/svg">
<path fill-rule="evenodd" clip-rule="evenodd" d="M16.5273 3.51269C15.6524 2.63779 14.1705 2.92318 13.6831 4.06043L12.0915 7.77417C10.5934 7.48038 8.9793 7.91317 7.81711 9.07535L6.10808 10.7844C5.81536 11.0771 5.81536 11.5517 6.10808 11.8444L8.60184 14.3382L3.21953 19.7205C2.92682 20.0132 2.92682 20.4878 3.21953 20.7805C3.51225 21.0732 3.98683 21.0732 4.27954 20.7805L9.66184 15.3982L12.1557 17.892C12.2963 18.0326 12.4869 18.1115 12.6857 18.1115C12.8845 18.1115 13.0751 18.0326 13.2157 17.892L14.9247 16.183C16.0869 15.0208 16.5197 13.4067 16.2259 11.9085L19.9396 10.3169C21.0769 9.82954 21.3623 8.34766 20.4874 7.47276L16.5273 3.51269ZM15.061 4.65095C15.1306 4.48848 15.3423 4.44771 15.4673 4.5727L19.4274 8.53276C19.5524 8.65775 19.5116 8.86945 19.3491 8.93907L15.0365 10.7874C14.6723 10.9434 14.4925 11.3559 14.626 11.7289C15.0368 12.8765 14.7816 14.2061 13.8647 15.123L12.6857 16.302L7.69808 11.3144L8.87711 10.1354C9.79396 9.21851 11.1236 8.96331 12.2712 9.37405C12.6442 9.50755 13.0567 9.32774 13.2127 8.96361L15.061 4.65095Z" fill="currentColor"/>
</svg>
