<svg  class="svg-icon" viewBox="0 0 24 24" xmlns="http://www.w3.org/2000/svg" data-testid="icon-transfers" fill="none"><path fill="currentColor" fill-rule="evenodd" d="M16 4.284H5a2.72 2.72 0 0 0-2.716 2.717v8c0 1.264.872 2.32 2.043 2.622A2.75 2.75 0 0 0 7 19.75a2.746 2.746 0 0 0 2.643-2.034h2.714A2.746 2.746 0 0 0 15 19.751a2.746 2.746 0 0 0 2.643-2.034H19a2.72 2.72 0 0 0 2.716-2.716v-4c0-3.892-2.404-6.717-5.716-6.717Zm4.284 6.717v1.314l-.045-.012c-.034-.01-.067-.019-.104-.019h-1.918l-2.5-1.666v-4.9H16c2.523 0 4.284 2.172 4.284 5.283Zm-10.568-.716h4.568V5.716H9.716v4.567ZM5 5.716h3.284v4.567H3.716V7.002c0-.708.576-1.284 1.284-1.284Zm.75 11.284a1.251 1.251 0 0 0 2.5 0 1.251 1.251 0 0 0-2.5 0ZM15 18.25a1.251 1.251 0 0 1 0-2.5 1.251 1.251 0 0 1 0 2.5Zm2.643-1.966H19c.708 0 1.284-.576 1.284-1.284v-1.314a.84.84 0 0 0-.045.011.387.387 0 0 1-.104.02H18a.716.716 0 0 1-.398-.121l-2.819-1.88H3.716v3.284c0 .49.286.904.692 1.12A2.744 2.744 0 0 1 7 14.25c1.267 0 2.326.866 2.643 2.034h2.714A2.746 2.746 0 0 1 15 14.25c1.267 0 2.326.866 2.643 2.034Z" clip-rule="evenodd"/></svg>
