<svg viewBox="0 0 16 18" fill="none" xmlns="http://www.w3.org/2000/svg">
<path fill-rule="evenodd" clip-rule="evenodd" d="M7.33224 1.15594C7.74752 0.925232 8.25248 0.925233 8.66776 1.15594L14.6678 4.48928C15.1043 4.73179 15.375 5.19189 15.375 5.69124V12.3086C15.375 12.808 15.1043 13.2681 14.6678 13.5106L8.66776 16.8439C8.25248 17.0746 7.74752 17.0747 7.33224 16.8439L1.33224 13.5106C0.895725 13.2681 0.625 12.808 0.625 12.3086V5.69124C0.625 5.19189 0.895726 4.73179 1.33224 4.48928L7.33224 1.15594ZM8.06071 2.24864C8.02295 2.22767 7.97705 2.22767 7.9393 2.24864L1.93929 5.58197C1.89961 5.60402 1.875 5.64585 1.875 5.69124V12.3086C1.875 12.354 1.89961 12.3959 1.93929 12.4179L7.9393 15.7512C7.97705 15.7722 8.02295 15.7722 8.06071 15.7512L14.0607 12.4179C14.1004 12.3959 14.125 12.354 14.125 12.3086V5.69124C14.125 5.64585 14.1004 5.60402 14.0607 5.58197L8.06071 2.24864Z" fill="#030848"/>
<path fill-rule="evenodd" clip-rule="evenodd" d="M4.04167 8.99994C4.04167 6.81381 5.81387 5.04161 8 5.04161C10.1861 5.04161 11.9583 6.81381 11.9583 8.99994C11.9583 11.1861 10.1861 12.9583 8 12.9583C5.81387 12.9583 4.04167 11.1861 4.04167 8.99994ZM8 6.29161C6.50423 6.29161 5.29167 7.50417 5.29167 8.99994C5.29167 10.4957 6.50423 11.7083 8 11.7083C9.49577 11.7083 10.7083 10.4957 10.7083 8.99994C10.7083 7.50417 9.49577 6.29161 8 6.29161Z" fill="currentColor"/>
</svg>
