<svg viewBox="0 0 24 24" xmlns="http://www.w3.org/2000/svg" class="svg-icon" data-testid="icon-binoculars">
  <path d="M12.2928 3.61441C12.2031 3.61425 12.1144 3.63422 12.0334 3.67285C11.9524 3.71148 11.8812 3.76778 11.8248 3.83761L11.718 3.91681C9.648 3.27601 7.2864 3.74641 5.6424 5.33041C4.95395 5.98367 4.44179 6.80036 4.15353 7.70458C3.86527 8.60881 3.81026 9.57123 3.9936 10.5024C3.97322 10.5204 3.95322 10.5388 3.9336 10.5576L2.9988 11.4576C2.81797 11.6292 2.67396 11.8357 2.57555 12.0647C2.47714 12.2937 2.42639 12.5404 2.42639 12.7896C2.42639 13.0389 2.47714 13.2855 2.57555 13.5145C2.67396 13.7435 2.81797 13.9501 2.9988 14.1216C3.4764 14.5824 4.1388 14.7552 4.7544 14.64C4.83 14.9868 5.0064 15.3168 5.286 15.5856C5.6544 15.9408 6.1332 16.1244 6.6156 16.1376C6.6288 16.602 6.8196 17.0628 7.188 17.418C7.5564 17.7732 8.0364 17.958 8.5188 17.97C8.5308 18.4344 8.7228 18.8964 9.0912 19.2516C9.44389 19.5863 9.90589 19.7819 10.3917 19.8022C10.8775 19.8225 11.3542 19.6661 11.7336 19.362L12.258 19.866C13.026 20.6064 14.2716 20.6064 15.0396 19.866C15.4068 19.5132 15.5976 19.0548 15.6144 18.5916C16.1077 18.5789 16.5784 18.3825 16.9344 18.0408C17.3016 17.6868 17.4924 17.2284 17.5068 16.7652C17.9945 16.7481 18.4588 16.552 18.8112 16.2144C19.1028 15.9348 19.2828 15.588 19.3524 15.2256C19.6613 15.2798 19.9786 15.2606 20.2787 15.1698C20.5788 15.0789 20.8534 14.9188 21.0804 14.7024C21.2614 14.5309 21.4056 14.3242 21.5041 14.0951C21.6026 13.866 21.6534 13.6192 21.6534 13.3698C21.6534 13.1204 21.6026 12.8736 21.5041 12.6445C21.4056 12.4154 21.2614 12.2088 21.0804 12.0372L20.2164 11.2056L20.3928 10.5456C20.7496 9.1963 20.5689 7.76117 19.8888 6.54241C18.8856 4.73521 16.9392 3.61921 14.8344 3.61921H13.3584C13.2948 3.61606 13.2312 3.61446 13.1676 3.61441H12.2928ZM15.2364 8.07361L18.1224 10.854L18.126 10.8564L20.2152 12.87C20.2831 12.9344 20.3371 13.0119 20.374 13.0978C20.411 13.1837 20.43 13.2763 20.43 13.3698C20.43 13.4633 20.411 13.5559 20.374 13.6418C20.3371 13.7277 20.2831 13.8053 20.2152 13.8696C20.075 14.0024 19.8893 14.0764 19.6962 14.0764C19.5031 14.0764 19.3174 14.0024 19.1772 13.8696L17.592 12.3432C17.4758 12.2317 17.321 12.1695 17.16 12.1695C16.999 12.1695 16.8442 12.2317 16.728 12.3432L16.7112 12.3576C16.6546 12.4112 16.6096 12.4758 16.5788 12.5474C16.548 12.619 16.5321 12.6961 16.5321 12.774C16.5321 12.8519 16.548 12.9291 16.5788 13.0007C16.6096 13.0722 16.6546 13.1368 16.7112 13.1904L17.9472 14.3808C18.2352 14.6568 18.2352 15.1056 17.9472 15.3828C17.8197 15.5036 17.6542 15.5762 17.4791 15.5883C17.3039 15.6003 17.13 15.551 16.9872 15.4488C16.868 15.3627 16.7225 15.3211 16.5758 15.3312C16.4291 15.3413 16.2907 15.4024 16.1844 15.504C16.0806 15.6033 16.0178 15.738 16.0087 15.8814C15.9996 16.0248 16.0448 16.1664 16.1352 16.278C16.2429 16.4129 16.296 16.5834 16.284 16.7556C16.272 16.9279 16.1958 17.0893 16.0704 17.208C15.9411 17.3306 15.7727 17.4036 15.5949 17.4141C15.4171 17.4247 15.2412 17.3721 15.0984 17.2656C14.9798 17.1767 14.8337 17.1325 14.6857 17.1408C14.5377 17.1492 14.3974 17.2095 14.2896 17.3112C14.1844 17.4104 14.1206 17.5456 14.111 17.6899C14.1015 17.8341 14.1468 17.9766 14.238 18.0888C14.3482 18.2255 14.4029 18.3988 14.3911 18.574C14.3794 18.7493 14.302 18.9137 14.1744 19.0344C14.0324 19.1692 13.844 19.2444 13.6482 19.2444C13.4524 19.2444 13.264 19.1692 13.122 19.0344L12.6024 18.534L12.792 18.3516C12.973 18.1801 13.1172 17.9734 13.2157 17.7443C13.3142 17.5152 13.365 17.2684 13.365 17.019C13.365 16.7696 13.3142 16.5228 13.2157 16.2937C13.1172 16.0646 12.973 15.858 12.792 15.6864C12.4334 15.3427 11.959 15.1458 11.4624 15.1344C11.4478 14.6485 11.2421 14.188 10.89 13.8528C10.5309 13.5093 10.0561 13.3127 9.5592 13.302C9.54463 12.8161 9.33894 12.3556 8.9868 12.0204C8.75626 11.801 8.47678 11.6396 8.17149 11.5497C7.86619 11.4598 7.54387 11.4438 7.2312 11.5032C7.1521 11.1421 6.96699 10.8129 6.6996 10.5576C6.49462 10.362 6.25035 10.2123 5.98304 10.1183C5.71573 10.0244 5.43148 9.98842 5.1492 10.0128C5.05466 9.30963 5.12827 8.59406 5.364 7.92485C5.59972 7.25565 5.99083 6.65191 6.5052 6.16321C7.02496 5.66664 7.64815 5.29121 8.33009 5.06382C9.01203 4.83644 9.73583 4.76274 10.4496 4.84801L8.7036 6.13201C8.4802 6.29434 8.29202 6.50025 8.15042 6.73732C8.00881 6.9744 7.91673 7.23771 7.87972 7.51136C7.84271 7.78502 7.86154 8.06333 7.93508 8.3295C8.00862 8.59567 8.13534 8.84418 8.3076 9.06001C8.65596 9.49681 9.15932 9.78248 9.71296 9.85758C10.2666 9.93268 10.8279 9.79143 11.28 9.46321L13.1712 8.07481H15.2352L15.2364 8.07361ZM9.414 7.09801L12.5244 4.81441H13.1676C13.2264 4.8141 13.2853 4.8157 13.344 4.81921H14.8344C16.5192 4.81921 18.0564 5.71321 18.84 7.12561C19.3704 8.08081 19.5096 9.19081 19.2324 10.2384L19.2288 10.2504L15.9168 7.05001C15.8045 6.93741 15.6522 6.87396 15.4932 6.87361H12.9732C12.8458 6.87386 12.7219 6.91462 12.6192 6.99001L10.5696 8.49481C10.3683 8.63897 10.1195 8.70075 9.87409 8.66752C9.62872 8.63428 9.40532 8.50853 9.2496 8.31601C9.17703 8.22662 9.12353 8.12332 9.09239 8.01247C9.06125 7.90163 9.05313 7.78558 9.06853 7.67148C9.08393 7.55737 9.12253 7.44763 9.18194 7.34901C9.24135 7.25038 9.32033 7.16496 9.414 7.09801ZM9.9444 17.43L9.9564 17.418L10.89 16.518L10.9008 16.5084C11.0418 16.3802 11.226 16.3101 11.4165 16.3121C11.607 16.3141 11.7898 16.3881 11.928 16.5192C11.9959 16.5836 12.0499 16.6611 12.0868 16.747C12.1238 16.8329 12.1428 16.9255 12.1428 17.019C12.1428 17.1125 12.1238 17.2051 12.0868 17.291C12.0499 17.3769 11.9959 17.4545 11.928 17.5188L10.9932 18.4188C10.853 18.5516 10.6673 18.6256 10.4742 18.6256C10.2811 18.6256 10.0954 18.5516 9.9552 18.4188C9.88822 18.3554 9.83466 18.2792 9.79769 18.1947C9.76072 18.1102 9.74109 18.0192 9.73997 17.9269C9.73885 17.8347 9.75627 17.7432 9.79117 17.6579C9.82608 17.5725 9.87778 17.495 9.9432 17.43H9.9444ZM10.0368 15.6756L10.0248 15.6864L9.0912 16.5864L9.0792 16.5972C8.93815 16.7249 8.75408 16.7946 8.56384 16.7924C8.37361 16.7901 8.19122 16.7161 8.0532 16.5852C7.98609 16.5215 7.9325 16.445 7.89562 16.3601C7.85874 16.2753 7.83933 16.1839 7.83854 16.0914C7.83776 15.9989 7.85562 15.9072 7.89105 15.8217C7.92649 15.7363 7.97878 15.6588 8.0448 15.594L8.0532 15.5856L8.9868 14.6856L8.9952 14.6772C9.136 14.548 9.32057 14.477 9.51165 14.4786C9.70274 14.4802 9.88612 14.5541 10.0248 14.6856C10.092 14.749 10.1457 14.8253 10.1828 14.9099C10.2198 14.9945 10.2395 15.0857 10.2406 15.1781C10.2418 15.2704 10.2243 15.3621 10.1893 15.4475C10.1543 15.533 10.1024 15.6106 10.0368 15.6756ZM8.1228 13.8528L7.188 14.7528L7.1796 14.7612C7.03879 14.8904 6.85423 14.9614 6.66314 14.9598C6.47206 14.9583 6.28867 14.8843 6.15 14.7528C6.08213 14.6885 6.02808 14.6109 5.99115 14.525C5.95421 14.4391 5.93516 14.3465 5.93516 14.253C5.93516 14.1595 5.95421 14.0669 5.99115 13.981C6.02808 13.8951 6.08213 13.8176 6.15 13.7532L7.0836 12.8532C7.22385 12.7201 7.40984 12.6459 7.6032 12.6459C7.79656 12.6459 7.98255 12.7201 8.1228 12.8532C8.19009 12.9169 8.24384 12.9935 8.28083 13.0785C8.31782 13.1634 8.33729 13.255 8.33807 13.3476C8.33886 13.4403 8.32094 13.5321 8.28539 13.6177C8.24985 13.7033 8.1974 13.7808 8.1312 13.8456L8.1228 13.8528ZM5.8356 12.39L4.902 13.29C4.76188 13.4234 4.57584 13.4978 4.3824 13.4978C4.18895 13.4978 4.00291 13.4234 3.8628 13.29C3.79474 13.2256 3.74053 13.1481 3.70349 13.062C3.66644 12.976 3.64733 12.8833 3.64733 12.7896C3.64733 12.6959 3.66644 12.6032 3.70349 12.5172C3.74053 12.4312 3.79474 12.3536 3.8628 12.2892L4.7976 11.3892C4.93779 11.2565 5.12352 11.1825 5.3166 11.1825C5.50967 11.1825 5.69541 11.2565 5.8356 11.3892C5.90365 11.4536 5.95786 11.5312 5.99491 11.6172C6.03195 11.7032 6.05106 11.7959 6.05106 11.8896C6.05106 11.9833 6.03195 12.076 5.99491 12.162C5.95786 12.2481 5.90365 12.3256 5.8356 12.39Z" />
</svg>
