<svg viewBox="0 0 24 24" fill="none" xmlns="http://www.w3.org/2000/svg" data-testid="icon-warning-solid" >
<path d="M12.6667 8.99999C12.6667 9.36818 12.3682 9.66666 12 9.66666C11.6318 9.66666 11.3334 9.36818 11.3334 8.99999C11.3334 8.6318 11.6318 8.33333 12 8.33333C12.3682 8.33333 12.6667 8.6318 12.6667 8.99999Z" fill="white"/>
<path d="M12 10.8333C12.2762 10.8333 12.5 11.0572 12.5 11.3333V14.6667C12.5 14.9428 12.2762 15.1667 12 15.1667C11.7239 15.1667 11.5 14.9428 11.5 14.6667V11.3333C11.5 11.0572 11.7239 10.8333 12 10.8333Z" fill="white"/>
<path fill-rule="evenodd" clip-rule="evenodd" d="M13.5136 5.66175C12.7856 4.59664 11.2144 4.59664 10.4864 5.66175L10.1985 6.08304C8.39445 8.72252 6.84448 11.5269 5.56933 14.4587L5.50918 14.597C5.05981 15.6302 5.73872 16.8033 6.85842 16.9285C10.2755 17.3104 13.7245 17.3104 17.1416 16.9285C18.2613 16.8033 18.9402 15.6302 18.4908 14.597L18.4307 14.4587C17.1555 11.5269 15.6056 8.72252 13.8015 6.08305L13.5136 5.66175ZM11.312 6.22602C11.6429 5.74188 12.3571 5.74188 12.688 6.22602L12.9759 6.64732C14.7443 9.23467 16.2637 11.9837 17.5137 14.8576L17.5738 14.9958C17.7548 15.4119 17.4814 15.8843 17.0305 15.9346C13.6873 16.3083 10.3128 16.3083 6.96949 15.9346C6.51863 15.8843 6.24525 15.4119 6.4262 14.9958L6.48634 14.8576C7.73631 11.9837 9.25567 9.23466 11.0241 6.64732L11.312 6.22602Z" fill="white"/>
<path d="M22.56 16.3L14.89 3.58C14.5798 3.09481 14.1525 2.69552 13.6475 2.41894C13.1424 2.14235 12.5758 1.99738 12 1.99738C11.4241 1.99738 10.8576 2.14235 10.3525 2.41894C9.84743 2.69552 9.42012 3.09481 9.10998 3.58L1.43998 16.3C1.16903 16.7517 1.02177 17.2667 1.01299 17.7933C1.00421 18.3199 1.13423 18.8396 1.38998 19.3C1.68566 19.8183 2.11364 20.2487 2.63018 20.5474C3.14672 20.8461 3.7333 21.0023 4.32998 21H19.67C20.2627 21.0063 20.8467 20.8562 21.3629 20.5647C21.879 20.2733 22.3092 19.8508 22.61 19.34C22.8732 18.8748 23.0074 18.3477 22.9986 17.8132C22.9898 17.2787 22.8384 16.7563 22.56 16.3V16.3ZM12 17C11.8022 17 11.6089 16.9414 11.4444 16.8315C11.28 16.7216 11.1518 16.5654 11.0761 16.3827C11.0004 16.2 10.9806 15.9989 11.0192 15.8049C11.0578 15.6109 11.153 15.4327 11.2929 15.2929C11.4327 15.153 11.6109 15.0578 11.8049 15.0192C11.9989 14.9806 12.1999 15.0004 12.3827 15.0761C12.5654 15.1518 12.7216 15.28 12.8314 15.4444C12.9413 15.6089 13 15.8022 13 16C13 16.2652 12.8946 16.5196 12.7071 16.7071C12.5195 16.8946 12.2652 17 12 17ZM13 13C13 13.2652 12.8946 13.5196 12.7071 13.7071C12.5195 13.8946 12.2652 14 12 14C11.7348 14 11.4804 13.8946 11.2929 13.7071C11.1053 13.5196 11 13.2652 11 13V9C11 8.73478 11.1053 8.48043 11.2929 8.29289C11.4804 8.10536 11.7348 8 12 8C12.2652 8 12.5195 8.10536 12.7071 8.29289C12.8946 8.48043 13 8.73478 13 9V13Z" fill="#A95B00"/>
</svg>
