<svg class="svg-icon" viewBox="0 0 24 24" xmlns="http://www.w3.org/2000/svg" data-testid="icon-chevrons-left">
<path d="M12.5953 11.5223C12.4651 11.6542 12.4 11.8271 12.4 12C12.4 12.1729 12.4651 12.3458 12.5953 12.4777L16.862 16.8021C17.1224 17.066 17.5443 17.066 17.8047 16.8021C18.0651 16.5381 18.0651 16.1105 17.8047 15.8466L14.0094 12L17.8047 8.1534C18.0651 7.88947 18.0651 7.46189 17.8047 7.19795C17.5443 6.93402 17.1224 6.93402 16.862 7.19795L12.5953 11.5223Z" />
<path d="M6.19531 11.5223C6.06511 11.6542 6 11.8271 6 12C6 12.1729 6.06511 12.3458 6.19531 12.4777L10.462 16.8021C10.7224 17.066 11.1443 17.066 11.4047 16.8021C11.6651 16.5381 11.6651 16.1105 11.4047 15.8466L7.60938 12L11.4047 8.1534C11.6651 7.88947 11.6651 7.46189 11.4047 7.19795C11.1443 6.93402 10.7224 6.93402 10.462 7.19795L6.19531 11.5223Z" />
</svg>
