<svg class="svg-icon" viewBox="0 0 24 24" xmlns="http://www.w3.org/2000/svg" data-testid="icon-close">
  <path d="M13.7676 12.0008L20.8838 4.88458C21.3721 4.3963 21.3721 3.60528 20.8838 3.117C20.3955 2.62872 19.6045 2.62872 19.1162 3.117L12 10.2332L4.88379 3.117C4.39551 2.62872 3.60449 2.62872 3.11621 3.117C2.62793 3.60528 2.62793 4.3963 3.11621 4.88458L10.2324 12.0008L3.11621 19.117C2.62793 19.6053 2.62793 20.3963 3.11621 20.8846C3.36035 21.1287 3.68018 21.2508 4 21.2508C4.31982 21.2508 4.63965 21.1287 4.88379 20.8846L12 13.7684L19.1162 20.8846C19.3604 21.1287 19.6802 21.2508 20 21.2508C20.3198 21.2508 20.6396 21.1287 20.8838 20.8846C21.3721 20.3963 21.3721 19.6053 20.8838 19.117L13.7676 12.0008Z"/>
</svg>
