<svg viewBox="0 0 24 24" fill="currentColor" xmlns="http://www.w3.org/2000/svg">
    <path fill-rule="evenodd" clip-rule="evenodd" d="M12 20.5C16.6944 20.5 20.5 16.6944 20.5 12C20.5 7.30558 16.6944 3.5 12 3.5C7.30558 3.5 3.5 7.30558 3.5 12C3.5 16.6944 7.30558 20.5 12 20.5ZM12 22C17.5228 22 22 17.5228 22 12C22 6.47715 17.5228 2 12 2C6.47715 2 2 6.47715 2 12C2 17.5228 6.47715 22 12 22Z" fill="currentColor"/>
    <path fill-rule="evenodd" clip-rule="evenodd" d="M8.73295 11.9227C8.41577 11.5501 7.84822 11.4979 7.46564 11.806C7.08235 12.1135 7.02855 12.6643 7.34538 13.036L9.50586 15.5719C9.67112 15.7661 9.91481 15.8814 10.174 15.8886C10.1828 15.8889 10.1912 15.8889 10.1996 15.8889C10.4497 15.8889 10.6891 15.7879 10.8597 15.6094L16.6209 9.57895C16.9592 9.22506 16.9374 8.67221 16.5731 8.34426C16.2081 8.01596 15.6385 8.03712 15.3009 8.39067L10.2383 13.6898L8.73295 11.9227Z" fill="currentColor"/>
</svg>
