<svg viewBox="0 0 24 24" xmlns="http://www.w3.org/2000/svg" class="svg-icon" data-testid="icon-person-flag">
  <circle cx="11.9941" cy="20.9879" r="0.75"/>
  <path fill-rule="evenodd" clip-rule="evenodd" d="M21.9001 6.01739C21.8997 6.28106 21.7605 6.52472 21.5339 6.65997L16.9011 9.41925V12.8494C17.3945 12.8388 17.9243 12.9905 18.4011 13.4749C19.1687 14.2542 19.2019 15.3548 18.4895 16.4183L15.488 20.4388C15.2395 20.7703 14.7698 20.8382 14.4382 20.5911C14.1062 20.3431 14.0383 19.8734 14.2859 19.5413L17.2654 15.5521C17.7004 14.9012 17.4231 14.6195 17.3318 14.5272C16.9226 14.1102 16.4265 14.5096 16.3708 14.5555C16.0579 14.8509 14.4968 16.4661 14.4968 16.4661C14.3357 16.6321 14.1096 16.7132 13.8762 16.6903C13.6457 16.6653 13.4402 16.5345 13.3186 16.3372C12.8362 15.5516 12.1716 14.9119 11.3425 14.4354C11.1409 14.3192 11.0046 14.116 10.9734 13.8856C10.9421 13.6551 11.0198 13.4232 11.1833 13.2576C12.094 12.3367 12.3537 10.9134 11.8293 9.71564C11.3137 8.53644 10.1536 7.77618 8.86937 7.77179H8.85814C8.85598 7.77203 8.85334 7.77192 8.85058 7.7718C8.84774 7.77167 8.84476 7.77154 8.84203 7.77179H8.84154C7.55297 7.77179 6.38793 8.53302 5.87035 9.71565C5.34642 10.9134 5.60619 12.3367 6.51683 13.2576C6.68089 13.4237 6.75853 13.6561 6.72679 13.8875C6.69456 14.1185 6.55735 14.3216 6.35423 14.4368C4.62963 15.4178 3.59984 17.1512 3.59984 19.0731C3.59984 19.7157 4.1223 20.2381 4.76439 20.2381H8.83813C9.25219 20.2381 9.58813 20.5741 9.58813 20.9881C9.58813 21.4022 9.25219 21.7381 8.83813 21.7381H4.7644C3.29516 21.7381 2.09985 20.5428 2.09985 19.0731C2.09985 16.8924 3.12475 14.9051 4.88061 13.6087C4.0183 12.2972 3.85131 10.5882 4.49633 9.11408C5.25316 7.38507 6.95677 6.27179 8.84154 6.27179H8.85863C10.7439 6.27179 12.447 7.38507 13.2034 9.11408C13.8494 10.5892 13.6819 12.2991 12.8176 13.6112C13.2776 13.9525 13.6873 14.3421 14.0452 14.7777C14.533 14.2762 15.1589 13.637 15.3523 13.4549C15.3596 13.448 15.369 13.441 15.3785 13.4339C15.3864 13.428 15.3944 13.422 15.4011 13.4161V9.00714V8.98028V3.0003C15.4011 2.72979 15.5466 2.48028 15.7825 2.34747C16.0169 2.21319 16.3069 2.21856 16.5383 2.35821L21.5374 5.37335C21.7634 5.50958 21.9006 5.75372 21.9001 6.01739ZM19.6912 6.01154L16.9011 4.32843V7.67316L19.6912 6.01154Z"/>
</svg>
