<svg viewBox="0 0 24 24" class="svg-icon" xmlns="http://www.w3.org/2000/svg" data-testid="icon-gallery">
<path fill-rule="evenodd" clip-rule="evenodd" d="M8 2.25079H5C3.4834 2.25079 2.25 3.48419 2.25 5.00079V8.00079C2.25 9.51739 3.4834 10.7508 5 10.7508H8C9.5166 10.7508 10.75 9.51739 10.75 8.00079V5.00079C10.75 3.48419 9.5166 2.25079 8 2.25079ZM9.25 8.00079C9.25 8.69024 8.68945 9.25079 8 9.25079H5C4.31055 9.25079 3.75 8.69024 3.75 8.00079V5.00079C3.75 4.31134 4.31055 3.75079 5 3.75079H8C8.68945 3.75079 9.25 4.31134 9.25 5.00079V8.00079ZM19 2.25079H16C14.4834 2.25079 13.25 3.48419 13.25 5.00079V8.00079C13.25 9.51739 14.4834 10.7508 16 10.7508H19C20.5166 10.7508 21.75 9.51739 21.75 8.00079V5.00079C21.75 3.48419 20.5166 2.25079 19 2.25079ZM20.25 8.00079C20.25 8.69024 19.6894 9.25079 19 9.25079H16C15.3105 9.25079 14.75 8.69024 14.75 8.00079V5.00079C14.75 4.31134 15.3105 3.75079 16 3.75079H19C19.6894 3.75079 20.25 4.31134 20.25 5.00079V8.00079ZM5 13.2508H8C9.5166 13.2508 10.75 14.4842 10.75 16.0008V19.0008C10.75 20.5174 9.5166 21.7508 8 21.7508H5C3.4834 21.7508 2.25 20.5174 2.25 19.0008V16.0008C2.25 14.4842 3.4834 13.2508 5 13.2508ZM8 20.2508C8.68945 20.2508 9.25 19.6902 9.25 19.0008V16.0008C9.25 15.3113 8.68945 14.7508 8 14.7508H5C4.31055 14.7508 3.75 15.3113 3.75 16.0008V19.0008C3.75 19.6902 4.31055 20.2508 5 20.2508H8ZM19 13.2508H16C14.4834 13.2508 13.25 14.4842 13.25 16.0008V19.0008C13.25 20.5174 14.4834 21.7508 16 21.7508H19C20.5166 21.7508 21.75 20.5174 21.75 19.0008V16.0008C21.75 14.4842 20.5166 13.2508 19 13.2508ZM20.25 19.0008C20.25 19.6902 19.6894 20.2508 19 20.2508H16C15.3105 20.2508 14.75 19.6902 14.75 19.0008V16.0008C14.75 15.3113 15.3105 14.7508 16 14.7508H19C19.6894 14.7508 20.25 15.3113 20.25 16.0008V19.0008Z" />
</svg>
