<svg  viewBox="0 0 18 16" fill="none" xmlns="http://www.w3.org/2000/svg">
<path d="M11.9162 8.0001C11.9162 7.30975 12.4759 6.7501 13.1662 6.7501C13.8566 6.7501 14.4162 7.30975 14.4162 8.0001C14.4162 8.69046 13.8566 9.2501 13.1662 9.2501C12.4759 9.2501 11.9162 8.69046 11.9162 8.0001Z" fill="#030848"/>
<path fill-rule="evenodd" clip-rule="evenodd" d="M16.034 3.56179C15.4859 2.27373 14.2747 1.34779 12.8334 1.19613L12.2902 1.13897C9.54662 0.850254 6.77933 0.869293 4.03996 1.19573L3.68001 1.23862C2.28935 1.40434 1.18747 2.49084 1.00224 3.87904C0.637273 6.6143 0.637273 9.38592 1.00224 12.1212C1.18747 13.5094 2.28935 14.5959 3.68001 14.7616L4.03997 14.8045C6.77933 15.1309 9.54661 15.15 12.2902 14.8613L12.8334 14.8041C14.2747 14.6524 15.4859 13.7265 16.034 12.4384C16.9 12.1806 17.561 11.4298 17.6695 10.5021C17.8639 8.83977 17.8639 7.16045 17.6695 5.49814C17.561 4.57045 16.9 3.81964 16.034 3.56179ZM12.1594 2.3821C9.50849 2.10314 6.83469 2.12154 4.18787 2.43694L3.82792 2.47984C3.00391 2.57803 2.35102 3.22182 2.24126 4.04437C1.89093 6.6699 1.89093 9.33033 2.24126 11.9559C2.35102 12.7784 3.00391 13.4222 3.82792 13.5204L4.18787 13.5633C6.8347 13.8787 9.50849 13.8971 12.1594 13.6181L12.7026 13.561C13.4114 13.4864 14.0386 13.137 14.4731 12.6184C13.2164 12.6917 11.9428 12.6589 10.701 12.5201C9.6432 12.4019 8.78771 11.569 8.66293 10.5021C8.4685 8.83977 8.4685 7.16045 8.66293 5.49814C8.78771 4.43125 9.64321 3.5983 10.701 3.48008C11.9428 3.34128 13.2164 3.30853 14.4731 3.38182C14.0385 2.86322 13.4114 2.51385 12.7026 2.43926L12.1594 2.3821ZM15.064 4.67903C15.0645 4.68222 15.065 4.68542 15.0655 4.68863L15.0706 4.72103L15.2361 4.69532C15.3218 4.7038 15.4073 4.71281 15.4926 4.72234C15.9821 4.77705 16.3719 5.16384 16.428 5.64335C16.6111 7.20919 16.6111 8.79104 16.428 10.3569C16.3719 10.8364 15.9821 11.2232 15.4926 11.2779C15.4073 11.2874 15.3217 11.2964 15.2361 11.3049L15.0706 11.2792L15.0655 11.3116C15.065 11.3148 15.0645 11.318 15.064 11.3212C13.6652 11.4477 12.2305 11.4333 10.8398 11.2779C10.3503 11.2232 9.96055 10.8364 9.90446 10.3569C9.72132 8.79104 9.72132 7.20919 9.90446 5.64335C9.96055 5.16384 10.3503 4.77705 10.8398 4.72234C12.2305 4.56691 13.6652 4.55247 15.064 4.67903Z" fill="currentColor"/>
</svg>
