<svg class="svg-icon" viewBox="0 0 24 24" xmlns="http://www.w3.org/2000/svg" data-testid="icon-edit">
  <path d="M19.13 3.7793C18.0915 2.74072 16.2804 2.73975 15.2409 3.7793L4.63577 14.3848C4.63534 14.3853 4.63485 14.3853 4.63443 14.3857C4.63401 14.3862 4.63394 14.3867 4.63351 14.3871L3.92739 15.0933C3.81264 15.208 3.73794 15.3569 3.71499 15.5176L3.00747 20.4673C2.97427 20.7007 3.05288 20.9365 3.21987 21.1035C3.36147 21.2451 3.55288 21.3233 3.75014 21.3233C3.7853 21.3233 3.82094 21.3208 3.8561 21.3159L8.80581 20.6084C8.96645 20.5855 9.11538 20.5108 9.23013 20.396L9.93631 19.6899C9.93674 19.6895 9.93723 19.6894 9.93765 19.689C9.93807 19.6885 9.93814 19.6881 9.93857 19.6876L20.5441 9.08254C21.0636 8.56301 21.3498 7.87258 21.3498 7.1382C21.3498 6.40334 21.0636 5.71291 20.5441 5.19338L19.13 3.7793ZM8.34634 19.1587L4.63394 19.6894L5.1647 15.977L5.16494 15.9768L8.34658 19.1584L8.34634 19.1587ZM9.40713 18.0979L6.22549 14.9163L13.6499 7.49152L16.8319 10.6735L9.40713 18.0979ZM19.4835 8.02198L17.8924 9.61298L14.7104 6.43097L16.3014 4.83984C16.7887 4.35156 17.5822 4.35254 18.0695 4.83984L19.4835 6.2539C19.9709 6.7412 19.9709 7.53467 19.4835 8.02198Z"/>
</svg>
