<svg viewBox="0 0 16 16"  xmlns="http://www.w3.org/2000/svg">
<path fill-rule="evenodd" clip-rule="evenodd" d="M13.4719 12.7977H4.57316C3.83154 12.7977 3.83154 12.7977 3.83154 13.1123V13.4269C3.83154 13.7415 3.83154 13.7415 4.57316 13.7415H13.4719C14.2135 13.7415 14.2135 13.7415 14.2135 13.4269V13.1123C14.2135 12.7977 14.2135 12.7977 13.4719 12.7977Z"/>
<path fill-rule="evenodd" clip-rule="evenodd" d="M13.4719 9.68164H4.57316C3.83154 9.68164 3.83154 9.68164 3.83154 9.99625V10.3109C3.83154 10.6255 3.83154 10.6255 4.57316 10.6255H13.4719C14.2135 10.6254 14.2135 10.6254 14.2135 10.3108V9.99617C14.2135 9.68164 14.2135 9.68164 13.4719 9.68164Z" />
<path fill-rule="evenodd" clip-rule="evenodd" d="M13.4719 4.89136H4.57316C3.83154 4.89136 3.83154 4.89136 3.83154 5.20596V5.52057C3.83154 5.83518 3.83154 5.83518 4.57316 5.83518H13.4719C14.2135 5.8351 14.2135 5.8351 14.2135 5.52049V5.20589C14.2135 4.89136 14.2135 4.89136 13.4719 4.89136Z" />
<path fill-rule="evenodd" clip-rule="evenodd" d="M13.4719 1.47192H4.57316C3.83154 1.47192 3.83154 1.47192 3.83154 1.78653V2.10114C3.83154 2.41574 3.83154 2.41574 4.57316 2.41574H13.4719C14.2135 2.41567 14.2135 2.41567 14.2135 2.10106V1.78645C14.2135 1.47192 14.2135 1.47192 13.4719 1.47192Z" />
<path d="M3.35954 13.1798C3.35954 13.8313 2.83134 14.3595 2.17977 14.3595C1.5282 14.3595 1 13.8313 1 13.1798C1 12.5282 1.5282 12 2.17977 12C2.83134 12 3.35954 12.5282 3.35954 13.1798Z" />
<path d="M3.35954 10.1798C3.35954 10.8313 2.83134 11.3595 2.17977 11.3595C1.5282 11.3595 1 10.8313 1 10.1798C1 9.5282 1.5282 9 2.17977 9C2.83134 9 3.35954 9.5282 3.35954 10.1798Z" />
<path d="M3.35954 5.17977C3.35954 5.83134 2.83134 6.35954 2.17977 6.35954C1.5282 6.35954 1 5.83134 1 5.17977C1 4.5282 1.5282 4 2.17977 4C2.83134 4 3.35954 4.5282 3.35954 5.17977Z" />
<path d="M3.35954 2.17977C3.35954 2.83134 2.83134 3.35954 2.17977 3.35954C1.5282 3.35954 1 2.83134 1 2.17977C1 1.5282 1.5282 1 2.17977 1C2.83134 1 3.35954 1.5282 3.35954 2.17977Z" />
</svg>
