<svg viewBox="0 0 16 16"  xmlns="http://www.w3.org/2000/svg">
<path fill-rule="evenodd" clip-rule="evenodd" d="M11.8182 4.5H6.1739C5.70351 4.5 5.70351 4.5 5.70351 4.94361V5.38722C5.70351 5.83082 5.70351 5.83082 6.1739 5.83082H11.8182C12.2886 5.83082 12.2886 5.83082 12.2886 5.38722V4.94361C12.2886 4.5 12.2886 4.5 11.8182 4.5ZM14.3359 10.5818H6.36759C5.70351 10.5818 5.70351 10.5818 5.70351 11.0254V11.469C5.70351 11.9126 5.70351 11.9126 6.36759 11.9126H14.3359C15 11.9125 15 11.9125 15 11.4689V11.0253C15 10.5818 15 10.5818 14.3359 10.5818ZM11.8182 13.25H6.1739C5.70351 13.25 5.70351 13.25 5.70351 13.6936V14.1372C5.70351 14.5808 5.70351 14.5808 6.1739 14.5808H11.8182C12.2886 14.5807 12.2886 14.5807 12.2886 14.1371V13.6935C12.2886 13.25 12.2886 13.25 11.8182 13.25ZM14.3359 1.83176H6.36759C5.70351 1.83176 5.70351 1.83176 5.70351 2.27537V2.71898C5.70351 3.16259 5.70351 3.16259 6.36759 3.16259H14.3359C15 3.16259 15 3.16259 15 2.71898V2.27537C15 1.83176 15 1.83176 14.3359 1.83176ZM3.58701 1H1.70554L1.4704 2.45838H2.41107V6.25H3.58701V1ZM2.64622 9.645C1.70554 9.645 1 10.4266 1 11.5934H2.03483C2.03483 11.185 2.22301 10.8118 2.64633 10.8118C3.02732 10.8118 3.22961 11.1122 3.22487 11.4797C3.2225 11.7188 3.09076 11.9406 2.54755 12.5063L1 14.125V15H4.29255V13.67H3.03195L3.60812 12.9525C4.13733 12.2962 4.29243 11.9171 4.29243 11.36C4.29255 10.4734 3.58701 9.645 2.64622 9.645Z"/>
</svg>
