<svg class="svg-icon" viewBox="0 0 24 24" fill="none" xmlns="http://www.w3.org/2000/svg">
  <path d="M5.75 9.5C5.75 9.03621 6.08891 8.75 6.4 8.75C6.71109 8.75 7.05 9.03621 7.05 9.5C7.05 9.96379 6.71109 10.25 6.4 10.25C6.08891 10.25 5.75 9.96379 5.75 9.5ZM11.35 9.5C11.35 9.03621 11.6889 8.75 12 8.75C12.3111 8.75 12.65 9.03621 12.65 9.5C12.65 9.96379 12.3111 10.25 12 10.25C11.6889 10.25 11.35 9.96379 11.35 9.5ZM16.95 9.5C16.95 9.03621 17.2889 8.75 17.6 8.75C17.9111 8.75 18.25 9.03621 18.25 9.5C18.25 9.96379 17.9111 10.25 17.6 10.25C17.2889 10.25 16.95 9.96379 16.95 9.5Z" stroke="currentcolor" stroke-width="1.5"/>
  <path d="M5.75 14.5C5.75 14.0362 6.08891 13.75 6.4 13.75C6.71109 13.75 7.05 14.0362 7.05 14.5C7.05 14.9638 6.71109 15.25 6.4 15.25C6.08891 15.25 5.75 14.9638 5.75 14.5ZM11.35 14.5C11.35 14.0362 11.6889 13.75 12 13.75C12.3111 13.75 12.65 14.0362 12.65 14.5C12.65 14.9638 12.3111 15.25 12 15.25C11.6889 15.25 11.35 14.9638 11.35 14.5ZM16.95 14.5C16.95 14.0362 17.2889 13.75 17.6 13.75C17.9111 13.75 18.25 14.0362 18.25 14.5C18.25 14.9638 17.9111 15.25 17.6 15.25C17.2889 15.25 16.95 14.9638 16.95 14.5Z" stroke="currentcolor" stroke-width="1.5"/>
</svg>
