<svg class="svg-icon" viewBox="0 0 16 17" xmlns="http://www.w3.org/2000/svg" data-testid="icon-clear">
<path d="M11.2251 1.22399L15.366 5.36399C15.5401 5.5381 15.6782 5.7448 15.7724 5.97228C15.8666 6.19977 15.9151 6.44359 15.9151 6.68982C15.9151 6.93605 15.8666 7.17987 15.7724 7.40736C15.6782 7.63484 15.5401 7.84154 15.366 8.01565L8.13095 15.249L13.2126 15.2498C13.3637 15.2498 13.5096 15.3045 13.6234 15.4038C13.7372 15.5031 13.8112 15.6402 13.8318 15.7898L13.8376 15.8748C13.8376 16.026 13.7828 16.172 13.6833 16.2858C13.5839 16.3997 13.4466 16.4736 13.2968 16.494L13.2126 16.4998L6.20429 16.5007C5.94105 16.5156 5.67764 16.4746 5.43133 16.3806C5.18503 16.2865 4.9614 16.1414 4.77512 15.9548L0.63512 11.814C0.461008 11.6399 0.322895 11.4332 0.228666 11.2057C0.134437 10.9782 0.0859375 10.7344 0.0859375 10.4882C0.0859375 10.2419 0.134437 9.9981 0.228666 9.77062C0.322895 9.54313 0.461008 9.33643 0.63512 9.16232L8.57345 1.22399C8.74756 1.04988 8.95426 0.911762 9.18175 0.817533C9.40924 0.723304 9.65306 0.674805 9.89929 0.674805C10.1455 0.674805 10.3893 0.723304 10.6168 0.817533C10.8443 0.911762 11.051 1.04988 11.2251 1.22399ZM2.75762 8.80649L1.51845 10.0465C1.40141 10.1637 1.33567 10.3225 1.33567 10.4882C1.33567 10.6538 1.40141 10.8126 1.51845 10.9298L5.65929 15.0707C5.78095 15.1923 5.94095 15.254 6.10095 15.254L6.12595 15.2498L6.15762 15.2515C6.3035 15.2385 6.44012 15.1744 6.54345 15.0707L7.78179 13.8315L2.75679 8.80649H2.75762ZM9.45762 2.10732L3.64095 7.92232L8.66595 12.9473L14.4818 7.13232C14.5399 7.07428 14.5859 7.00536 14.6174 6.92951C14.6488 6.85365 14.665 6.77235 14.665 6.69024C14.665 6.60813 14.6488 6.52682 14.6174 6.45097C14.5859 6.37511 14.5399 6.3062 14.4818 6.24815L10.341 2.10732C10.2238 1.99028 10.0649 1.92454 9.89929 1.92454C9.73366 1.92454 9.57481 1.99028 9.45762 2.10732Z" />
</svg>
