<svg viewBox="0 0 24 24" xmlns="http://www.w3.org/2000/svg" class="svg-icon" data-testid="icon-bus">
  <path d="M11.2857 4.85714C11.0963 4.85714 10.9146 4.9324 10.7806 5.06635C10.6467 5.20031 10.5714 5.38199 10.5714 5.57143C10.5714 5.76087 10.6467 5.94255 10.7806 6.0765C10.9146 6.21046 11.0963 6.28571 11.2857 6.28571H12.7143C12.9037 6.28571 13.0854 6.21046 13.2194 6.0765C13.3533 5.94255 13.4286 5.76087 13.4286 5.57143C13.4286 5.38199 13.3533 5.20031 13.2194 5.06635C13.0854 4.9324 12.9037 4.85714 12.7143 4.85714H11.2857ZM9.85714 15.2143C9.85714 15.4984 9.74426 15.771 9.54333 15.9719C9.3424 16.1728 9.06987 16.2857 8.78571 16.2857C8.50155 16.2857 8.22903 16.1728 8.0281 15.9719C7.82717 15.771 7.71429 15.4984 7.71429 15.2143C7.71429 14.9301 7.82717 14.6576 8.0281 14.4567C8.22903 14.2557 8.50155 14.1429 8.78571 14.1429C9.06987 14.1429 9.3424 14.2557 9.54333 14.4567C9.74426 14.6576 9.85714 14.9301 9.85714 15.2143ZM15.2143 16.2857C15.4984 16.2857 15.771 16.1728 15.9719 15.9719C16.1728 15.771 16.2857 15.4984 16.2857 15.2143C16.2857 14.9301 16.1728 14.6576 15.9719 14.4567C15.771 14.2557 15.4984 14.1429 15.2143 14.1429C14.9301 14.1429 14.6576 14.2557 14.4567 14.4567C14.2557 14.6576 14.1429 14.9301 14.1429 15.2143C14.1429 15.4984 14.2557 15.771 14.4567 15.9719C14.6576 16.1728 14.9301 16.2857 15.2143 16.2857ZM3.42857 6.14286C3.42857 5.0441 3.86505 3.99035 4.64199 3.21341C5.41892 2.43648 6.47267 2 7.57143 2H16.4286C17.5273 2 18.5811 2.43648 19.358 3.21341C20.135 3.99035 20.5714 5.0441 20.5714 6.14286V9.14286H21.2857C21.4752 9.14286 21.6568 9.21811 21.7908 9.35207C21.9247 9.48602 22 9.6677 22 9.85714C22 10.0466 21.9247 10.2283 21.7908 10.3622C21.6568 10.4962 21.4752 10.5714 21.2857 10.5714H20.5714V20.1429C20.5714 20.6354 20.3758 21.1078 20.0275 21.4561C19.6792 21.8043 19.2068 22 18.7143 22H16.7143C16.2217 22 15.7494 21.8043 15.4011 21.4561C15.0528 21.1078 14.8571 20.6354 14.8571 20.1429V19.1429H9.14286V20.1429C9.14286 20.6354 8.94719 21.1078 8.59891 21.4561C8.25063 21.8043 7.77826 22 7.28571 22H5.28571C4.79317 22 4.3208 21.8043 3.97252 21.4561C3.62423 21.1078 3.42857 20.6354 3.42857 20.1429V10.5714H2.71429C2.52485 10.5714 2.34316 10.4962 2.20921 10.3622C2.07525 10.2283 2 10.0466 2 9.85714C2 9.6677 2.07525 9.48602 2.20921 9.35207C2.34316 9.21811 2.52485 9.14286 2.71429 9.14286H3.42857V6.14286ZM19.1429 6.14286C19.1429 5.42298 18.8569 4.73259 18.3479 4.22357C17.8388 3.71454 17.1484 3.42857 16.4286 3.42857H7.57143C6.85156 3.42857 6.16117 3.71454 5.65214 4.22357C5.14311 4.73259 4.85714 5.42298 4.85714 6.14286V12H19.1429V6.14286ZM16.2857 19.1429V20.1429C16.2857 20.1991 16.2968 20.2549 16.3183 20.3069C16.3399 20.3589 16.3714 20.4061 16.4112 20.4459C16.451 20.4857 16.4983 20.5173 16.5503 20.5388C16.6023 20.5603 16.658 20.5714 16.7143 20.5714H18.7143C18.7706 20.5714 18.8263 20.5603 18.8783 20.5388C18.9303 20.5173 18.9775 20.4857 19.0173 20.4459C19.0571 20.4061 19.0887 20.3589 19.1102 20.3069C19.1318 20.2549 19.1429 20.1991 19.1429 20.1429V19.1429H16.2857ZM4.85714 19.1429V20.1429C4.85714 20.1991 4.86823 20.2549 4.88977 20.3069C4.9113 20.3589 4.94287 20.4061 4.98267 20.4459C5.02247 20.4857 5.06971 20.5173 5.12171 20.5388C5.1737 20.5603 5.22943 20.5714 5.28571 20.5714H7.28571C7.34199 20.5714 7.39773 20.5603 7.44972 20.5388C7.50172 20.5173 7.54896 20.4857 7.58876 20.4459C7.62856 20.4061 7.66012 20.3589 7.68166 20.3069C7.7032 20.2549 7.71429 20.1991 7.71429 20.1429V19.1429H4.85714ZM4.85714 17.7143H19.1429V13.4286H4.85714V17.7143Z" />
</svg>
