<svg  viewBox="0 0 16 16"  xmlns="http://www.w3.org/2000/svg">
<path d="M4 13.4521C4.42188 13.417 4.71191 13.3408 4.87012 13.2236C5.11621 13.0479 5.31836 12.6816 5.47656 12.125L7.68262 4.16211C7.76465 3.83984 7.82031 3.61426 7.84961 3.48535C7.87891 3.35059 7.89355 3.21875 7.89355 3.08984C7.89355 2.80273 7.7998 2.60645 7.6123 2.50098C7.4248 2.38965 7.09375 2.31934 6.61914 2.29004V2H11.0752V2.29004C10.6006 2.35449 10.2725 2.45703 10.0908 2.59766C9.91504 2.73242 9.75098 3.07227 9.59863 3.61719L7.39258 11.5801C7.31641 11.8613 7.26074 12.0928 7.22559 12.2744C7.19629 12.4561 7.18164 12.5938 7.18164 12.6875C7.18164 12.9805 7.28418 13.1768 7.48926 13.2764C7.7002 13.376 8.00781 13.4346 8.41211 13.4521V13.7422H4V13.4521Z" />
</svg>
