<svg class="svg-icon" viewBox="0 0 24 24" fill="none" xmlns="http://www.w3.org/2000/svg" data-testid="icon-duplicate">
<path fill-rule="evenodd" clip-rule="evenodd" d="M3.10235 7.67377C3.64352 7.13259 4.37752 6.82856 5.14286 6.82856H14.2857C15.0511 6.82856 15.785 7.13259 16.3262 7.67377C16.8674 8.21494 17.1714 8.94894 17.1714 9.71427V18.8571C17.1714 19.6225 16.8674 20.3565 16.3262 20.8976C15.785 21.4388 15.0511 21.7428 14.2857 21.7428H5.14286C4.37752 21.7428 3.64352 21.4388 3.10235 20.8976C2.56117 20.3565 2.25714 19.6225 2.25714 18.8571V9.71427C2.25714 8.94894 2.56117 8.21494 3.10235 7.67377ZM5.14286 8.02856C4.69578 8.02856 4.26701 8.20616 3.95088 8.52229C3.63474 8.83843 3.45714 9.26719 3.45714 9.71427V18.8571C3.45714 19.3042 3.63474 19.733 3.95088 20.0491C4.26701 20.3652 4.69578 20.5428 5.14286 20.5428H14.2857C14.7328 20.5428 15.1616 20.3652 15.4777 20.0491C15.7938 19.733 15.9714 19.3042 15.9714 18.8571V9.71427C15.9714 9.2672 15.7938 8.83843 15.4777 8.52229C15.1616 8.20616 14.7328 8.02856 14.2857 8.02856H5.14286Z" fill="currentColor"/>
<path fill-rule="evenodd" clip-rule="evenodd" d="M18.8537 2.26056L18.8571 2.26056C19.6225 2.26056 20.3565 2.56459 20.8976 3.10577C21.4388 3.64694 21.7429 4.38093 21.7429 5.14627V14.2857C21.7429 15.051 21.4388 15.785 20.8976 16.3262C20.3565 16.8674 19.6225 17.1714 18.8571 17.1714H16.5714C16.2401 17.1714 15.9714 16.9028 15.9714 16.5714C15.9714 16.24 16.2401 15.9714 16.5714 15.9714H18.8571C19.3042 15.9714 19.733 15.7938 20.0491 15.4777C20.3653 15.1616 20.5429 14.7328 20.5429 14.2857V5.14627C20.5429 4.6992 20.3653 4.27043 20.0491 3.95429C19.733 3.63816 19.3042 3.46056 18.8571 3.46056H18.8542L9.7119 3.47656C9.26526 3.47723 8.837 3.65513 8.52141 3.97119C8.20582 4.28725 8.02857 4.71563 8.02857 5.16227V7.42856C8.02857 7.75993 7.75994 8.02856 7.42857 8.02856C7.0972 8.02856 6.82857 7.75993 6.82857 7.42856V5.16228C6.82857 4.39769 7.132 3.66435 7.67225 3.1233C8.21246 2.58227 8.9453 2.27773 9.70985 2.27656L18.8537 2.26056ZM9.71428 10.2571C10.0457 10.2571 10.3143 10.5258 10.3143 10.8571V13.6857H13.1429C13.4742 13.6857 13.7429 13.9543 13.7429 14.2857C13.7429 14.6171 13.4742 14.8857 13.1429 14.8857H10.3143V17.7143C10.3143 18.0456 10.0457 18.3143 9.71428 18.3143C9.38291 18.3143 9.11428 18.0456 9.11428 17.7143V14.8857H6.28571C5.95434 14.8857 5.68571 14.6171 5.68571 14.2857C5.68571 13.9543 5.95434 13.6857 6.28571 13.6857H9.11428V10.8571C9.11428 10.5258 9.38291 10.2571 9.71428 10.2571Z" fill="currentColor"/>
</svg>
