<svg class="svg-icon" viewBox="0 0 24 24" xmlns="http://www.w3.org/2000/svg" data-testid="icon-search">
  <path d="M21.5303 20.4697L16.8358 15.7753C18.0295 14.344 18.75 12.5049 18.75 10.5C18.75 5.95117 15.0488 2.25 10.5 2.25C5.95117 2.25 2.25 5.95117 2.25 10.5C2.25 15.0488 5.95117 18.75 10.5 18.75C12.5049 18.75 14.344 18.0295 15.7753 16.8358L20.4697 21.5303C20.6162 21.6768 20.8081 21.75 21 21.75C21.1919 21.75 21.3838 21.6768 21.5303 21.5303C21.8232 21.2373 21.8232 20.7627 21.5303 20.4697ZM3.75 10.5C3.75 6.77783 6.77783 3.75 10.5 3.75C14.2222 3.75 17.25 6.77783 17.25 10.5C17.25 14.2222 14.2222 17.25 10.5 17.25C6.77783 17.25 3.75 14.2222 3.75 10.5Z"/>
</svg>
