<svg class="svg-flag" viewBox="0 0 21 15" fill="none" xmlns="http://www.w3.org/2000/svg">
<g clip-path="url(#clip0_874_18334)">
<mask id="mask0_874_18334" style="mask-type:alpha" maskUnits="userSpaceOnUse" x="0" y="0" width="21" height="15">
<path d="M19 0H2C0.89543 0 0 0.89543 0 2V13C0 14.1046 0.89543 15 2 15H19C20.1046 15 21 14.1046 21 13V2C21 0.89543 20.1046 0 19 0Z" fill="white"/>
</mask>
<g mask="url(#mask0_874_18334)">
<path d="M19 0H2C0.89543 0 0 0.89543 0 2V13C0 14.1046 0.89543 15 2 15H19C20.1046 15 21 14.1046 21 13V2C21 0.89543 20.1046 0 19 0Z" fill="#C32427"/>
<path fill-rule="evenodd" clip-rule="evenodd" d="M10.5 8.99001L9.03001 9.76001L9.31001 8.12501L8.12201 6.96501L9.76501 6.72701L10.5 5.23901L11.235 6.72601L12.878 6.96601L11.688 8.12401L11.968 9.76001" fill="#006331"/>
<path d="M19 0.5H2C1.17157 0.5 0.5 1.17157 0.5 2V13C0.5 13.8284 1.17157 14.5 2 14.5H19C19.8284 14.5 20.5 13.8284 20.5 13V2C20.5 1.17157 19.8284 0.5 19 0.5Z" stroke="black" stroke-opacity="0.1"/>
</g>
</g>
<defs>
<clipPath id="clip0_874_18334">
<rect width="21" height="15" fill="white"/>
</clipPath>
</defs>
</svg>
