<svg class="svg-flag" viewBox="0 0 21 15" fill="none" xmlns="http://www.w3.org/2000/svg">
    <g clip-path="url(#clip0_2946_95022)">
        <mask id="mask0_2946_95022" style="mask-type:alpha" maskUnits="userSpaceOnUse" x="0" y="0" width="21" height="15">
            <path d="M19 0H2C0.89543 0 0 0.89543 0 2V13C0 14.1046 0.89543 15 2 15H19C20.1046 15 21 14.1046 21 13V2C21 0.89543 20.1046 0 19 0Z" fill="white"/>
        </mask>
        <g mask="url(#mask0_2946_95022)">
            <path d="M19 0H2C0.89543 0 0 0.89543 0 2V13C0 14.1046 0.89543 15 2 15H19C20.1046 15 21 14.1046 21 13V2C21 0.89543 20.1046 0 19 0Z" fill="#003399"/>
            <path d="M19 0.5H2C1.17157 0.5 0.5 1.17157 0.5 2V13C0.5 13.8284 1.17157 14.5 2 14.5H19C19.8284 14.5 20.5 13.8284 20.5 13V2C20.5 1.17157 19.8284 0.5 19 0.5Z" stroke="black" stroke-opacity="0.1"/>
            <rect x="7" y="4" width="1" height="1" fill="#FFCC00"/>
            <rect x="9" y="3" width="1" height="1" fill="#FFCC00"/>
            <rect x="11" y="3" width="1" height="1" fill="#FFCC00"/>
            <rect x="6" y="8" width="1" height="1" fill="#FFCC00"/>
            <rect x="6" y="6" width="1" height="1" fill="#FFCC00"/>
            <rect x="13" y="4" width="1" height="1" fill="#FFCC00"/>
            <rect x="14" y="6" width="1" height="1" fill="#FFCC00"/>
            <rect x="14" y="8" width="1" height="1" fill="#FFCC00"/>
            <rect x="13" y="10" width="1" height="1" fill="#FFCC00"/>
            <rect x="9" y="11" width="1" height="1" fill="#FFCC00"/>
            <rect x="11" y="11" width="1" height="1" fill="#FFCC00"/>
            <rect x="7" y="10" width="1" height="1" fill="#FFCC00"/>
        </g>
    </g>
</svg>