<svg width="18" height="13" fill="none" xmlns="http://www.w3.org/2000/svg">
    <g clip-path="url(#a)">
        <mask id="b" style="mask-type:alpha" maskUnits="userSpaceOnUse" x="0" y="0" width="18" height="13">
            <path d="M16.286 0H1.714C.768 0 0 .768 0 1.714v9.429c0 .947.768 1.714 1.714 1.714h14.572c.947 0 1.714-.767 1.714-1.714V1.714C18 .768 17.233 0 16.286 0Z" fill="#fff"/>
        </mask>
        <g mask="url(#b)">
            <path d="M16.286 0H1.714C.768 0 0 .768 0 1.714v9.429c0 .947.768 1.714 1.714 1.714h14.572c.947 0 1.714-.767 1.714-1.714V1.714C18 .768 17.233 0 16.286 0Z" fill="#D90D08"/>
            <path fill-rule="evenodd" clip-rule="evenodd" d="M0 0h18v6H0V0Z" fill="#fff"/>
            <path fill-rule="evenodd" clip-rule="evenodd" d="m0 0 8.571 6.429L0 12.857V0Z" fill="#0B4380"/>
            <path d="M16.286.429H1.714C1.004.429.43 1.004.43 1.714v9.429c0 .71.575 1.286 1.285 1.286h14.572c.71 0 1.285-.576 1.285-1.286V1.714c0-.71-.575-1.285-1.285-1.285Z" stroke="#000" stroke-opacity=".1"/>
        </g>
    </g>
    <defs>
        <clipPath id="a">
            <path fill="#fff" d="M0 0h18v12.857H0z"/>
        </clipPath>
    </defs>
</svg>
